
<svg width="141" height="141" viewBox="0 0 141 141" fill="none" xmlns="http://www.w3.org/2000/svg">
<path d="M127.385 40.7029C140.176 65.4268 135.589 95.7815 115.695 115.695C103.538 127.833 87.3911 134.508 70.2186 134.508C55.9735 134.508 41.9708 129.716 30.7649 121.009L28.8258 119.498L27.0731 121.232L7.90566 140.4L0 132.494L18.7759 113.7L19.1675 113.327L103.687 28.8072L100.984 26.8867C91.9592 20.4727 81.3127 17.0606 70.1813 17.0606C55.9922 17.0606 42.6607 22.5982 32.6295 32.6295C17.2097 48.0492 12.828 71.3933 21.4236 91.288L13.0331 99.6784C0.24239 74.9546 4.82916 44.5998 24.7052 24.7052C36.862 12.567 53.0089 5.89195 70.1813 5.89195C84.4264 5.89195 98.4292 10.6838 109.635 19.3912L111.574 20.9015L113.327 19.1675L132.494 0L140.4 7.90566L121.232 27.0731L118.659 29.6649L109.243 39.0621L103.818 44.488L39.0621 109.243L36.7128 111.593L39.4164 113.513C48.4408 119.927 59.0873 123.339 70.2186 123.339C84.4078 123.339 97.7393 117.802 107.771 107.771C123.19 92.3507 127.572 69.0067 118.976 49.112L127.385 40.7029Z" fill="white"/>
</svg>
