<svg width="24" height="24" viewBox="0 0 24 24" fill="none" xmlns="http://www.w3.org/2000/svg">
<mask id="mask0_109_1151" style="mask-type:alpha" maskUnits="userSpaceOnUse" x="0" y="0" width="24" height="24">
<rect width="24" height="24" fill="#D9D9D9"/>
</mask>
<g mask="url(#mask0_109_1151)">
<path d="M21 7.73325H19.3333V4.66675H4.66675V19.3333H19.3333V16.2832H21V21H3V3H21V7.73325ZM11.4 16.7832V7.23325H22.0333V16.7832H11.4ZM16.204 13.5668C16.6402 13.5668 17.0097 13.4128 17.3125 13.1048C17.6153 12.7969 17.7668 12.4231 17.7668 11.9833C17.7668 11.5528 17.6126 11.1868 17.3043 10.8855C16.9959 10.584 16.6278 10.4333 16.2 10.4333C15.7722 10.4333 15.4041 10.584 15.0958 10.8855C14.7874 11.1868 14.6333 11.5528 14.6333 11.9833C14.6333 12.4231 14.786 12.7969 15.0915 13.1048C15.3968 13.4128 15.7677 13.5668 16.204 13.5668ZM20.3668 15.1168V8.9H13.0667V15.1168H20.3668Z" fill="white"/>
</g>
</svg>
