<svg width="20" height="20" viewBox="0 0 20 20" fill="none" xmlns="http://www.w3.org/2000/svg">
<path d="M19.7008 12.419C18.3652 17.7762 12.9392 21.0365 7.58139 19.7006C2.22581 18.365 -1.03448 12.9387 0.301683 7.58197C1.63667 2.22419 7.06264 -1.03634 12.4188 0.299234C17.7763 1.63481 21.0363 7.06171 19.7006 12.4191L19.7007 12.419H19.7008Z" fill="#F7931A"/>
<path d="M14.4107 8.57525C14.6097 7.24447 13.5966 6.52912 12.2111 6.05192L12.6606 4.24925L11.5633 3.97582L11.1257 5.73102C10.8373 5.65907 10.541 5.59128 10.2466 5.52407L10.6872 3.75729L9.59059 3.48386L9.14091 5.28593C8.90218 5.23158 8.66771 5.17786 8.44022 5.12126L8.44149 5.11559L6.92825 4.7377L6.63634 5.90973C6.63634 5.90973 7.45047 6.09635 7.43331 6.10783C7.87767 6.21874 7.95803 6.51289 7.94469 6.74605L7.43273 8.7997C7.46333 8.80747 7.50302 8.81872 7.54681 8.83631C7.5102 8.82722 7.47125 8.8173 7.43082 8.80762L6.71323 11.6845C6.65892 11.8195 6.52108 12.0221 6.21041 11.9452C6.22141 11.9611 5.41285 11.7461 5.41285 11.7461L4.86804 13.0022L6.29604 13.3582C6.5617 13.4248 6.82203 13.4945 7.0784 13.5601L6.62432 15.3834L7.72038 15.6569L8.17007 13.8529C8.4695 13.9342 8.76009 14.0091 9.04457 14.0798L8.59639 15.8753L9.69378 16.1487L10.1478 14.3288C12.019 14.6829 13.426 14.5402 14.0182 12.8477C14.4954 11.485 13.9945 10.699 13.01 10.1865C13.727 10.0211 14.2671 9.54956 14.4111 8.5754L14.4108 8.57515L14.4107 8.57525ZM11.9036 12.0909C11.5644 13.4536 9.27014 12.717 8.5263 12.5323L9.12888 10.1167C9.87267 10.3023 12.258 10.6698 11.9036 12.0909H11.9036ZM12.2429 8.5555C11.9336 9.79498 10.024 9.16527 9.40456 9.01086L9.95088 6.82005C10.5703 6.97446 12.5652 7.26265 12.243 8.5555H12.2429Z" fill="white"/>
</svg>
