<svg width="15" height="14" viewBox="0 0 15 14" fill="none" xmlns="http://www.w3.org/2000/svg">
<mask id="mask0_142_824" style="mask-type:alpha" maskUnits="userSpaceOnUse" x="0" y="0" width="15" height="14">
<rect x="0.5" width="14" height="14" fill="#D9D9D9"/>
</mask>
<g mask="url(#mask0_142_824)">
<path d="M7.06217 9.77083H7.93717V9.1875H8.58774C8.73396 9.1875 8.85656 9.13806 8.95553 9.03919C9.0544 8.94021 9.10384 8.81762 9.10384 8.6714V7.0786C9.10384 6.93238 9.0544 6.80978 8.95553 6.71081C8.85656 6.61194 8.73396 6.5625 8.58774 6.5625H6.77051V5.6875H9.10384V4.8125H7.93717V4.22917H7.06217V4.8125H6.41161C6.26539 4.8125 6.14279 4.86194 6.04382 4.96081C5.94495 5.05978 5.89551 5.18238 5.89551 5.3286V6.9214C5.89551 7.06762 5.94495 7.19022 6.04382 7.28919C6.14279 7.38806 6.26539 7.4375 6.41161 7.4375H8.22884V8.3125H5.89551V9.1875H7.06217V9.77083ZM1.95801 11.375V2.625H13.0413V11.375H1.95801ZM2.83301 10.5H12.1663V3.5H2.83301V10.5Z" fill="#624CFB"/>
</g>
</svg>
