<svg width="41" height="40" viewBox="0 0 41 40" fill="none" xmlns="http://www.w3.org/2000/svg">
<path d="M17.5434 28.862L31.5496 14.8557L29.3543 12.6604L17.5434 24.4714L11.6059 18.5339L9.41058 20.7292L17.5434 28.862ZM20.5038 39.7917C17.7663 39.7917 15.1932 39.2722 12.7845 38.2333C10.3759 37.1945 8.28072 35.7846 6.49912 34.0037C4.71752 32.2228 3.30693 30.1285 2.26735 27.7208C1.22811 25.3132 0.708496 22.7408 0.708496 20.0037C0.708496 17.2662 1.22794 14.6931 2.26683 12.2844C3.30572 9.8757 4.71561 7.78056 6.49652 5.99897C8.27742 4.21737 10.3717 2.80678 12.7793 1.7672C15.187 0.727961 17.7594 0.208344 20.4965 0.208344C23.234 0.208344 25.8071 0.727787 28.2158 1.76668C30.6245 2.80556 32.7196 4.21546 34.5012 5.99636C36.2828 7.77727 37.6934 9.87154 38.733 12.2792C39.7722 14.6868 40.2918 17.2592 40.2918 19.9964C40.2918 22.7339 39.7724 25.307 38.7335 27.7156C37.6946 30.1243 36.2847 32.2195 34.5038 34.0011C32.7229 35.7826 30.6286 37.1932 28.221 38.2328C25.8134 39.2721 23.241 39.7917 20.5038 39.7917ZM20.5002 36.6667C25.1529 36.6667 29.0939 35.0521 32.3231 31.8229C35.5522 28.5938 37.1668 24.6528 37.1668 20C37.1668 15.3472 35.5522 11.4063 32.3231 8.17709C29.0939 4.94793 25.1529 3.33334 20.5002 3.33334C15.8474 3.33334 11.9064 4.94793 8.67725 8.17709C5.44808 11.4063 3.8335 15.3472 3.8335 20C3.8335 24.6528 5.44808 28.5938 8.67725 31.8229C11.9064 35.0521 15.8474 36.6667 20.5002 36.6667Z" fill="#987FFF"/>
</svg>
