<svg width="220" height="220" viewBox="0 0 220 220" fill="none" xmlns="http://www.w3.org/2000/svg">
<g clip-path="url(#clip0_885_25128)">
<path d="M110 220C170.751 220 220 170.751 220 110C220 49.2487 170.751 0 110 0C49.2487 0 0 49.2487 0 110C0 170.751 49.2487 220 110 220Z" fill="#5C34FD"/>
<path d="M158.596 84.5596C169.466 105.884 165.568 132.065 148.662 149.24C138.331 159.71 124.609 165.467 110.016 165.467C97.9103 165.467 86.0107 161.334 76.4879 153.824L74.84 152.521L73.3506 154.017L57.062 170.549L50.3438 163.73L66.2996 147.52L66.6324 147.198L138.458 74.2994L136.16 72.643C128.491 67.1109 119.444 64.1679 109.984 64.1679C97.9261 64.1679 86.597 68.9442 78.0724 77.5962C64.9686 90.8958 61.2451 111.03 68.5496 128.189L61.4194 135.426C50.5497 114.102 54.4476 87.9207 71.3383 70.7614C81.6692 60.2922 95.391 54.535 109.984 54.535C122.09 54.535 133.989 58.668 143.512 66.1781L145.16 67.4808L146.649 65.9852L162.938 49.4531L169.656 56.2718L153.368 72.8038L151.181 75.0392L143.179 83.1444L138.568 87.8242L83.5389 143.676L81.5425 145.702L83.84 147.359C91.5089 152.891 100.556 155.834 110.016 155.834C122.074 155.834 133.403 151.058 141.928 142.406C155.031 129.106 158.755 108.972 151.45 91.8124L158.596 84.5596Z" fill="white"/>
</g>
<defs>
<clipPath id="clip0_885_25128">
<rect width="220" height="220" fill="white"/>
</clipPath>
</defs>
</svg>
