<svg width="40" height="41" viewBox="0 0 40 41" fill="none" xmlns="http://www.w3.org/2000/svg">
<rect y="0.135254" width="40" height="40" rx="4" fill="#5024FF" fill-opacity="0.15"/>
<rect x="0.75" y="0.885254" width="38.5" height="38.5" rx="3.25" stroke="#5024FF" stroke-opacity="0.25" stroke-width="1.5"/>
<mask id="mask0_1131_435" style="mask-type:alpha" maskUnits="userSpaceOnUse" x="8" y="8" width="24" height="25">
<rect x="8" y="8.13525" width="24" height="24" fill="#D9D9D9"/>
</mask>
<g mask="url(#mask0_1131_435)">
<path d="M20 15.1353C19.5142 15.1353 19.101 14.9651 18.7605 14.6248C18.4202 14.2843 18.25 13.8711 18.25 13.3853C18.25 12.8994 18.4202 12.4863 18.7605 12.1458C19.101 11.8054 19.5142 11.6353 20 11.6353C20.4858 11.6353 20.899 11.8054 21.2395 12.1458C21.5798 12.4863 21.75 12.8994 21.75 13.3853C21.75 13.8711 21.5798 14.2843 21.2395 14.6248C20.899 14.9651 20.4858 15.1353 20 15.1353ZM18.75 28.6353V17.52H21.25V28.6353H18.75Z" fill="#987FFF"/>
</g>
</svg>
