<svg width="18" height="18" viewBox="0 0 18 18" fill="none" xmlns="http://www.w3.org/2000/svg">
<path d="M17 10.5001C17 11.8946 17 12.5919 16.8618 13.1673C16.4229 14.9956 14.9955 16.423 13.1672 16.8619C12.5918 17.0001 11.8945 17.0001 10.5 17.0001H9C6.19974 17.0001 4.79961 17.0001 3.73005 16.4551C2.78924 15.9758 2.02433 15.2109 1.54497 14.2701C1 13.2005 1 11.8004 1 9.0001V8.5001C1 6.17035 1 5.0055 1.3806 4.08664C1.88807 2.8615 2.86144 1.88813 4.08658 1.38066C4.86344 1.05888 5.81614 1.00915 7.5 1.00146M16.7597 6.45455C17.0221 4.8217 17.0697 3.16984 16.9019 1.54138C16.8898 1.42328 16.838 1.31854 16.7597 1.24027M16.7597 1.24027C16.6815 1.16201 16.5767 1.11023 16.4586 1.09806C14.8302 0.930252 13.1783 0.977922 11.5455 1.24027M16.7597 1.24027L7 11" stroke="white" stroke-width="2" stroke-linecap="round" stroke-linejoin="round"/>
</svg>
