<svg width="890" height="152" viewBox="0 0 890 152" fill="none" xmlns="http://www.w3.org/2000/svg">
<path d="M137.62 44.61C151.34 71.13 146.42 103.69 125.08 125.05C112.04 138.07 94.72 145.23 76.3 145.23C61.02 145.23 46 140.09 33.98 130.75L31.9 129.13L30.02 130.99L9.45998 151.55L0.97998 143.07L21.12 122.91L21.54 122.51L112.2 31.85L109.3 29.79C99.62 22.91 88.2 19.25 76.26 19.25C61.04 19.25 46.74 25.19 35.98 35.95C19.44 52.49 14.74 77.53 23.96 98.8699L14.96 107.87C1.23998 81.3499 6.15998 48.79 27.48 27.45C40.52 14.43 57.84 7.26995 76.26 7.26995C91.54 7.26995 106.56 12.41 118.58 21.75L120.66 23.37L122.54 21.51L143.1 0.949951L151.58 9.42995L131.02 29.99L128.26 32.77L118.16 42.85L112.34 48.67L42.88 118.13L40.36 120.65L43.26 122.71C52.94 129.59 64.36 133.25 76.3 133.25C91.52 133.25 105.82 127.31 116.58 116.55C133.12 100.01 137.82 74.97 128.6 53.63L137.62 44.61Z" fill="white"/>
<path d="M192.283 125.305V27.7915H251.349V38.3787H203.149V114.718H251.07V125.305H192.283ZM197.298 80.4488V69.8617H243.548V80.4488H197.298ZM275.676 125.305V27.7915H285.567L349.368 112.21L347.418 114.718C347.139 113.232 346.907 111.003 346.722 108.031C346.629 105.059 346.489 101.716 346.304 98.0013C346.211 94.1936 346.118 90.2466 346.025 86.1603C345.932 82.0741 345.839 78.0807 345.746 74.1801C345.746 70.2796 345.746 66.7505 345.746 63.5929V27.7915H356.612V125.305H346.443L282.92 42.0007L284.592 39.0753C284.87 42.79 285.102 46.4584 285.288 50.0803C285.567 53.7023 285.752 57.1849 285.845 60.5282C286.031 63.8715 286.17 66.9363 286.263 69.7224C286.356 72.5085 286.403 74.8766 286.403 76.8269C286.495 78.7772 286.542 80.1702 286.542 81.0061V125.305H275.676ZM425.723 126.698C418.758 126.698 412.349 125.491 406.499 123.076C400.648 120.569 395.586 117.086 391.314 112.628C387.042 108.078 383.699 102.738 381.284 96.6082C378.963 90.4788 377.802 83.7922 377.802 76.5483C377.802 69.3973 378.963 62.85 381.284 56.9063C383.699 50.8697 387.089 45.6226 391.454 41.1648C395.819 36.6142 400.88 33.1316 406.638 30.717C412.396 28.3023 418.711 27.095 425.583 27.095C430.134 27.095 434.638 27.838 439.096 29.3239C443.554 30.717 447.64 32.6672 451.355 35.1747C455.163 37.6822 458.274 40.5612 460.688 43.8116L453.166 51.6127C450.844 48.8266 448.151 46.412 445.086 44.3688C442.114 42.3257 438.957 40.7469 435.613 39.6325C432.27 38.518 428.927 37.9608 425.583 37.9608C420.383 37.9608 415.507 38.9359 410.956 40.8862C406.499 42.7436 402.645 45.3904 399.394 48.8266C396.144 52.2628 393.59 56.3491 391.732 61.0854C389.968 65.8218 389.086 70.9761 389.086 76.5483C389.086 82.3062 389.968 87.5998 391.732 92.4291C393.59 97.2583 396.19 101.437 399.533 104.967C402.97 108.403 406.963 111.096 411.514 113.046C416.157 114.904 421.311 115.832 426.977 115.832C430.32 115.832 433.663 115.368 437.006 114.439C440.35 113.418 443.415 112.025 446.201 110.26C448.987 108.496 451.355 106.499 453.305 104.27L458.877 113.325C456.741 115.925 453.862 118.247 450.24 120.29C446.711 122.24 442.811 123.819 438.539 125.026C434.267 126.141 429.995 126.698 425.723 126.698ZM474.867 125.305V114.996H490.608V38.1001H474.867V27.7915H517.216V38.1001H501.474V114.996H517.216V125.305H474.867ZM541.362 125.305V27.7915H552.228V125.305H541.362ZM546.795 81.8419V71.1154H596.109V81.8419H546.795ZM546.795 38.3787V27.7915H602.656V38.3787H546.795ZM689.133 125.305V27.7915H699.999V125.305H689.133ZM623.939 125.305V27.7915H634.804V125.305H623.939ZM629.232 81.9812V71.394H693.73V81.9812H629.232ZM728.689 125.305V27.7915H787.755V38.3787H739.555V114.718H787.476V125.305H728.689ZM733.704 80.4488V69.8617H779.954V80.4488H733.704ZM812.082 125.305V27.7915H850.252C855.917 27.7915 861.024 29.1382 865.575 31.8314C870.219 34.4318 873.887 38.0072 876.58 42.5579C879.273 47.1085 880.62 52.2628 880.62 58.0207C880.62 63.4072 879.32 68.2829 876.719 72.6478C874.119 77.0126 870.59 80.4953 866.132 83.0956C861.675 85.6031 856.66 86.8569 851.087 86.8569H822.948V125.305H812.082ZM871.565 125.305L847.047 82.3991L857.495 78.7772L884.521 125.305H871.565ZM822.948 76.2697H852.062C855.499 76.2697 858.517 75.4803 861.117 73.9015C863.718 72.3227 865.761 70.1867 867.247 67.4935C868.733 64.7074 869.476 61.5498 869.476 58.0207C869.476 54.2131 868.593 50.8233 866.829 47.8515C865.064 44.8796 862.603 42.5579 859.446 40.8862C856.381 39.2146 852.852 38.3787 848.858 38.3787H822.948V76.2697Z" fill="white"/>
</svg>