<svg width="18" height="18" viewBox="0 0 18 18" fill="none" xmlns="http://www.w3.org/2000/svg">
<path d="M6.5 13.2124C4.68333 13.2124 3.14583 12.5832 1.8875 11.3249C0.629167 10.0666 0 8.52907 0 6.7124C0 4.89574 0.629167 3.35824 1.8875 2.0999C3.14583 0.841569 4.68333 0.212402 6.5 0.212402C8.31667 0.212402 9.85417 0.841569 11.1125 2.0999C12.3708 3.35824 13 4.89574 13 6.7124C13 7.44574 12.8833 8.1374 12.65 8.7874C12.4167 9.4374 12.1 10.0124 11.7 10.5124L17.3 16.1124C17.4833 16.2957 17.575 16.5291 17.575 16.8124C17.575 17.0957 17.4833 17.3291 17.3 17.5124C17.1167 17.6957 16.8833 17.7874 16.6 17.7874C16.3167 17.7874 16.0833 17.6957 15.9 17.5124L10.3 11.9124C9.8 12.3124 9.225 12.6291 8.575 12.8624C7.925 13.0957 7.23333 13.2124 6.5 13.2124ZM6.5 11.2124C7.75 11.2124 8.8125 10.7749 9.6875 9.8999C10.5625 9.0249 11 7.9624 11 6.7124C11 5.4624 10.5625 4.3999 9.6875 3.5249C8.8125 2.6499 7.75 2.2124 6.5 2.2124C5.25 2.2124 4.1875 2.6499 3.3125 3.5249C2.4375 4.3999 2 5.4624 2 6.7124C2 7.9624 2.4375 9.0249 3.3125 9.8999C4.1875 10.7749 5.25 11.2124 6.5 11.2124Z" fill="#1A1A1A"/>
</svg>
