<svg width="117" height="20" viewBox="0 0 117 20" fill="none" xmlns="http://www.w3.org/2000/svg">
<g clip-path="url(#clip0_57_2)">
<path d="M17.9843 5.83561C19.7901 9.32612 19.1425 13.6116 16.3338 16.423C14.6174 18.1366 12.3379 19.079 9.91342 19.079C7.90234 19.079 5.92543 18.4025 4.34339 17.1732L4.06963 16.96L3.82218 17.2048L1.11612 19.9108L0 18.7947L2.65078 16.1413L2.70606 16.0887L14.6386 4.15617L14.2569 3.88503C12.9828 2.9795 11.4797 2.49778 9.90823 2.49778C7.90497 2.49778 6.02284 3.27959 4.60663 4.6958C2.42966 6.87276 1.81106 10.1685 3.02458 12.9772L1.84001 14.1617C0.0342204 10.6712 0.68178 6.38577 3.48787 3.57704C5.20417 1.86338 7.48379 0.920997 9.90823 0.920997C11.9193 0.920997 13.8962 1.59752 15.4783 2.82682L15.752 3.04004L15.9995 2.79524L18.7055 0.0891724L19.8216 1.20529L17.1156 3.91135L16.7524 4.27726L15.423 5.60396L14.657 6.36998L5.51479 15.5122L5.18311 15.8439L5.5648 16.115C6.83887 17.0205 8.34194 17.5022 9.91342 17.5022C11.9167 17.5022 13.7988 16.7204 15.2151 15.3042C17.392 13.1273 18.0106 9.83151 16.7971 7.0228L17.9843 5.83561Z" fill="white"/>
<path d="M25.179 16.442V3.60751H32.953V5.00098H26.6091V15.0486H32.9163V16.442H25.179ZM25.8391 10.5381V9.14469H31.9263V10.5381H25.8391Z" fill="white"/>
<path d="M36.1548 16.442V3.60751H37.4565L45.854 14.7186L45.5973 15.0486C45.5606 14.853 45.5301 14.5596 45.5056 14.1685C45.4934 13.7773 45.475 13.3373 45.4506 12.8484C45.4384 12.3472 45.4261 11.8278 45.4139 11.2899C45.4018 10.752 45.3895 10.2265 45.3773 9.71305C45.3773 9.19969 45.3773 8.73521 45.3773 8.31961V3.60751H46.8074V16.442H45.4689L37.1082 5.47769L37.3282 5.09265C37.3648 5.58158 37.3954 6.06441 37.4199 6.54112C37.4565 7.01783 37.481 7.4762 37.4932 7.91624C37.5177 8.35628 37.536 8.75965 37.5482 9.12635C37.5605 9.49306 37.5666 9.80474 37.5666 10.0614C37.5788 10.3182 37.5849 10.5015 37.5849 10.6115V16.442H36.1548Z" fill="white"/>
<path d="M55.9037 16.6253C54.9869 16.6253 54.1435 16.4665 53.3734 16.1487C52.6034 15.8187 51.9372 15.3603 51.3749 14.7736C50.8126 14.1746 50.3726 13.4718 50.0547 12.665C49.7492 11.8582 49.5964 10.9782 49.5964 10.0247C49.5964 9.08357 49.7492 8.22183 50.0547 7.43953C50.3726 6.64502 50.8187 5.9544 51.3933 5.36768C51.9677 4.76873 52.6339 4.31035 53.3917 3.99255C54.1496 3.67475 54.9808 3.51584 55.8854 3.51584C56.4843 3.51584 57.0771 3.61362 57.6638 3.8092C58.2505 3.99255 58.7884 4.24924 59.2773 4.57927C59.7785 4.9093 60.188 5.28823 60.5058 5.71604L59.5157 6.7428C59.2101 6.3761 58.8556 6.0583 58.4523 5.78938C58.0611 5.52046 57.6455 5.31267 57.2055 5.16599C56.7654 5.01931 56.3253 4.94597 55.8854 4.94597C55.2008 4.94597 54.5591 5.07432 53.9602 5.33101C53.3734 5.57547 52.8662 5.92384 52.4383 6.3761C52.0105 6.82837 51.6744 7.36619 51.4299 7.98958C51.1976 8.61298 51.0816 9.29138 51.0816 10.0247C51.0816 10.7826 51.1976 11.4794 51.4299 12.115C51.6744 12.7506 52.0166 13.3007 52.4567 13.7651C52.909 14.2174 53.4345 14.5719 54.0335 14.8285C54.6447 15.073 55.323 15.1952 56.0687 15.1952C56.5087 15.1952 56.9488 15.1342 57.3888 15.0119C57.8288 14.8774 58.2322 14.6941 58.5989 14.4618C58.9656 14.2296 59.2773 13.9668 59.534 13.6735L60.2674 14.8652C59.9862 15.2074 59.6073 15.5131 59.1307 15.782C58.6661 16.0387 58.1527 16.2465 57.5905 16.4054C57.0282 16.5521 56.4659 16.6253 55.9037 16.6253Z" fill="white"/>
<path d="M62.3721 16.442V15.0853H64.4439V4.96431H62.3721V3.60751H67.9458V4.96431H65.874V15.0853H67.9458V16.442H62.3721Z" fill="white"/>
<path d="M71.1238 16.442V3.60751H72.5539V16.442H71.1238ZM71.8388 10.7215V9.3097H78.3295V10.7215H71.8388ZM71.8388 5.00098V3.60751H79.1912V5.00098H71.8388Z" fill="white"/>
<path d="M90.5732 16.442V3.60751H92.0033V16.442H90.5732ZM81.9924 16.442V3.60751H83.4226V16.442H81.9924ZM82.6892 10.7399V9.34637H91.1783V10.7399H82.6892Z" fill="white"/>
<path d="M95.7793 16.442V3.60751H103.553V5.00098H97.2094V15.0486H103.517V16.442H95.7793ZM96.4397 10.5381V9.14469H102.527V10.5381H96.4397Z" fill="white"/>
<path d="M106.755 16.442V3.60751H111.779C112.525 3.60751 113.197 3.78475 113.796 4.13922C114.407 4.48148 114.891 4.95208 115.244 5.55103C115.599 6.14996 115.776 6.82837 115.776 7.58621C115.776 8.29517 115.606 8.93689 115.263 9.5114C114.92 10.0859 114.456 10.5443 113.87 10.8865C113.283 11.2165 112.623 11.3816 111.89 11.3816H108.185V16.442H106.755ZM114.585 16.442L111.358 10.7948L112.732 10.3182L116.29 16.442H114.585ZM108.185 9.98814H112.017C112.47 9.98814 112.867 9.88421 113.209 9.67637C113.551 9.46861 113.821 9.18748 114.016 8.83299C114.212 8.46629 114.31 8.0507 114.31 7.58621C114.31 7.08506 114.193 6.6389 113.962 6.24776C113.729 5.8566 113.405 5.55103 112.989 5.33101C112.586 5.11099 112.121 5.00098 111.596 5.00098H108.185V9.98814Z" fill="white"/>
</g>
<defs>
<clipPath id="clip0_57_2">
<rect width="116.336" height="19.8216" fill="white" transform="translate(0 0.0891724)"/>
</clipPath>
</defs>
</svg>
