<svg width="24" height="24" viewBox="0 0 24 24" fill="none" xmlns="http://www.w3.org/2000/svg">
<g clip-path="url(#clip0_109_1144)">
<path fill-rule="evenodd" clip-rule="evenodd" d="M12.4406 3.00051C13.0562 2.99637 13.3826 3.01703 13.8246 3.08314C14.1428 3.12858 14.6055 3.21948 14.8575 3.28558C15.1095 3.35169 15.4814 3.46324 15.6838 3.53347C15.8863 3.60784 16.3366 3.80202 16.6754 3.96728C17.0183 4.13255 17.4439 4.36391 17.6256 4.48373C17.8074 4.60354 18.1008 4.81012 18.2784 4.94233C18.452 5.07867 18.6048 5.18609 18.6172 5.18609C18.6296 5.18609 18.6379 5.00017 18.6379 4.77293C18.6379 4.50852 18.6585 4.31847 18.6957 4.24823C18.7246 4.18212 18.7825 4.12015 18.8197 4.10363C18.8568 4.08297 18.9353 4.07057 18.9973 4.07057C19.0634 4.07057 19.1543 4.10776 19.208 4.1532C19.2989 4.23583 19.2989 4.25236 19.2989 5.16543C19.2989 5.67774 19.2865 6.12395 19.27 6.16113C19.2493 6.19831 19.1874 6.25616 19.1254 6.28508C19.0386 6.33052 18.7907 6.34292 18.1421 6.34292C17.2827 6.34292 17.2745 6.34292 17.1588 6.24376C17.0761 6.16939 17.0472 6.10742 17.0472 5.99174C17.0472 5.88019 17.072 5.81821 17.1505 5.76037C17.2373 5.69014 17.3199 5.67774 17.638 5.68187C17.8529 5.68187 18.0264 5.66535 18.0388 5.64056C18.0512 5.61577 17.9231 5.50009 17.762 5.37614C17.5967 5.25219 17.2827 5.04562 17.0679 4.91341C16.853 4.78533 16.4812 4.58288 16.2416 4.47133C16.0019 4.35978 15.564 4.18626 15.2707 4.0871C14.9773 3.99207 14.4815 3.85986 14.1758 3.79376C13.6428 3.68221 13.5685 3.67808 12.5025 3.67808C11.5027 3.67808 11.3374 3.68634 10.9119 3.7731C10.6516 3.82681 10.2963 3.90531 10.1269 3.95489C9.95751 4.00034 9.59393 4.12015 9.32125 4.22344C9.04857 4.32673 8.67673 4.48786 8.49495 4.57875C8.31316 4.66965 8.00742 4.83904 7.81324 4.95885C7.61906 5.07867 7.29267 5.3059 7.09022 5.4629C6.88778 5.6199 6.55312 5.90911 6.35068 6.09916C6.14823 6.28921 5.83837 6.62386 5.66484 6.8387C5.49132 7.05354 5.23516 7.40059 5.09882 7.60304C4.96248 7.80548 4.77243 8.11535 4.68154 8.28474C4.58651 8.45413 4.42538 8.79705 4.32209 9.04908C4.21467 9.3011 4.07007 9.70599 3.9957 9.95801C3.9172 10.21 3.81391 10.6356 3.7602 10.9083C3.66931 11.3545 3.66105 11.5115 3.66105 12.4989C3.66105 13.474 3.67344 13.6433 3.75607 14.0689C3.80978 14.3292 3.89654 14.701 3.95025 14.8952C4.00396 15.0894 4.11138 15.4158 4.18988 15.6182C4.26838 15.8207 4.39233 16.1181 4.4667 16.2793C4.54106 16.4404 4.67327 16.6924 4.76004 16.8494C4.85093 17.0023 4.92116 17.1799 4.92116 17.2502C4.92116 17.3245 4.88398 17.4154 4.81788 17.4774C4.76417 17.5353 4.6774 17.5807 4.62369 17.5807C4.56998 17.5807 4.48735 17.5518 4.43778 17.5187C4.38407 17.4857 4.26425 17.3121 4.16509 17.1386C4.06594 16.961 3.90068 16.6222 3.79326 16.3826C3.68997 16.1429 3.54536 15.7794 3.47513 15.5769C3.40489 15.3745 3.30573 15.0274 3.25202 14.8126C3.19418 14.5977 3.11981 14.2259 3.07437 13.9863C3.01653 13.6392 3 13.3376 3 12.4783C3 11.5528 3.01239 11.3379 3.09089 10.9083C3.1446 10.6356 3.23963 10.21 3.30987 9.95801C3.38423 9.70599 3.50405 9.32589 3.58668 9.11105C3.66518 8.89621 3.8511 8.48719 3.9957 8.20211C4.1403 7.91703 4.36754 7.51628 4.49975 7.31383C4.63196 7.11138 4.89224 6.75607 5.07403 6.52884C5.25582 6.3016 5.61939 5.90911 5.87555 5.66122C6.13584 5.40919 6.49528 5.09106 6.67707 4.95472C6.85886 4.81425 7.15633 4.60354 7.33811 4.48786C7.5199 4.36804 7.9 4.1532 8.18508 4.0086C8.47016 3.86813 8.93289 3.66568 9.21796 3.56239C9.50304 3.45911 9.92859 3.3269 10.1682 3.26905C10.4078 3.20708 10.8334 3.12445 11.1185 3.08314C11.482 3.02529 11.8745 3.00464 12.4406 3.00051ZM12.424 6.42968C12.4488 6.42968 12.7009 6.44208 12.9818 6.46686C13.2627 6.48752 13.6883 6.55776 13.9279 6.6156C14.1675 6.67344 14.4981 6.77673 14.6633 6.84283C14.8245 6.90894 15.0847 7.02462 15.2417 7.10312C15.3946 7.17749 15.688 7.35515 15.8904 7.49149C16.0928 7.62783 16.411 7.87572 16.5886 8.04511C16.7704 8.21037 17.0224 8.47479 17.1505 8.63592C17.2786 8.79705 17.4397 9.00776 17.51 9.11105C17.5802 9.21434 17.7289 9.47462 17.8446 9.68946C17.9603 9.9043 18.1338 10.3133 18.2288 10.5984C18.3197 10.8835 18.4106 11.1975 18.423 11.3008C18.4437 11.4619 18.4313 11.5032 18.3363 11.6024C18.2702 11.6685 18.1834 11.7139 18.1132 11.7139C18.0512 11.7139 17.9562 11.6767 17.9066 11.6313C17.8529 11.5858 17.7992 11.4991 17.7868 11.4371C17.7744 11.371 17.7331 11.2181 17.7 11.0942C17.667 10.9702 17.5761 10.71 17.5017 10.5158C17.4273 10.3216 17.3034 10.053 17.2249 9.9167C17.1464 9.78036 17.0018 9.54899 16.9026 9.40026C16.8035 9.25152 16.5267 8.93339 16.287 8.69376C16.0474 8.45413 15.7003 8.15666 15.5186 8.03685C15.3368 7.9129 15.031 7.73525 14.8369 7.64022C14.6427 7.5452 14.3287 7.41712 14.1345 7.35928C13.9403 7.2973 13.6346 7.21467 13.4528 7.17749C13.2338 7.13617 12.9074 7.11138 12.4819 7.11138C11.9613 7.11138 11.7589 7.12791 11.4077 7.20641C11.1681 7.25599 10.8623 7.33862 10.726 7.38407C10.5896 7.42951 10.3087 7.55346 10.1062 7.65675C9.9038 7.7559 9.60633 7.9253 9.4452 8.03272C9.28407 8.13601 8.98247 8.38803 8.76763 8.59461C8.55692 8.79705 8.28424 9.09452 8.16855 9.25565C8.04874 9.41678 7.87521 9.67294 7.78432 9.83407C7.69343 9.9952 7.54882 10.2927 7.47032 10.4951C7.38769 10.6976 7.29267 10.9868 7.25548 11.1355C7.2183 11.2842 7.17285 11.4495 7.1522 11.5073C7.13154 11.5652 7.06543 11.6354 7.00759 11.6643C6.94975 11.6891 6.86712 11.7139 6.82167 11.7139C6.77623 11.7139 6.68946 11.6643 6.62749 11.6024C6.53246 11.4991 6.52007 11.4619 6.54073 11.3008C6.55725 11.1975 6.63575 10.9 6.72252 10.6397C6.80515 10.3794 6.97454 9.97041 7.09849 9.73078C7.2183 9.49115 7.46619 9.10279 7.63972 8.86316C7.81737 8.62353 8.13137 8.27648 8.33382 8.08643C8.53626 7.89638 8.85852 7.63196 9.0527 7.50388C9.24689 7.37167 9.56088 7.18162 9.75506 7.0866C9.94925 6.98744 10.2922 6.84697 10.5194 6.7726C10.7466 6.6941 11.0813 6.60321 11.2631 6.56602C11.4449 6.52884 11.7713 6.48339 11.9861 6.46686C12.2009 6.45034 12.3992 6.43381 12.424 6.42968ZM20.3483 7.41712C20.3979 7.41299 20.4805 7.45017 20.5384 7.49149C20.5962 7.53693 20.7656 7.80961 20.9143 8.10295C21.0672 8.39629 21.2614 8.81358 21.344 9.02842C21.4308 9.24326 21.5547 9.60683 21.6208 9.83407C21.6869 10.0613 21.7737 10.4249 21.8192 10.6397C21.8605 10.8546 21.9183 11.2264 21.9431 11.466C21.9762 11.747 21.9885 12.2138 21.972 12.7881C21.9555 13.4161 21.9266 13.8045 21.8687 14.1102C21.8233 14.3498 21.7489 14.6928 21.6993 14.8745C21.6539 15.0563 21.5506 15.3992 21.468 15.6389C21.3853 15.8785 21.1829 16.3536 21.0135 16.6924C20.8482 17.0353 20.588 17.4981 20.4351 17.7253C20.2864 17.9525 20.0261 18.3079 19.8567 18.5103C19.6914 18.7127 19.3526 19.0804 19.1047 19.3201C18.861 19.5597 18.5015 19.8778 18.3073 20.0266C18.1132 20.1753 17.7992 20.3984 17.605 20.5265C17.4108 20.6504 17.0679 20.8446 16.8407 20.9603C16.6134 21.0718 16.3077 21.2165 16.1589 21.2784C16.0102 21.3404 15.7623 21.4354 15.6012 21.4933C15.4401 21.547 15.1426 21.6379 14.9401 21.6916C14.7377 21.7453 14.3535 21.8321 14.0932 21.8816C13.7337 21.9477 13.3949 21.9767 12.7091 21.9932C11.9861 22.0097 11.6969 21.9973 11.3044 21.9436C11.0317 21.9023 10.6309 21.8321 10.4161 21.7866C10.2013 21.7412 9.76333 21.6172 9.4452 21.5139C9.12707 21.4106 8.59823 21.1917 8.26771 21.0264C7.93719 20.8611 7.5199 20.6298 7.33811 20.5141C7.15633 20.3943 6.86299 20.1877 6.68533 20.0555C6.51181 19.9191 6.35894 19.8117 6.34655 19.8117C6.33415 19.8117 6.32589 19.9976 6.32589 20.2249C6.32589 20.4893 6.30523 20.6794 6.26805 20.7537C6.23913 20.8157 6.18128 20.8777 6.1441 20.8983C6.10692 20.9149 6.02842 20.9272 5.96231 20.9272C5.90034 20.9272 5.80945 20.8859 5.75574 20.8322C5.66484 20.7413 5.66071 20.7248 5.66484 19.8241C5.66484 19.3159 5.67724 18.8739 5.69376 18.8367C5.71442 18.7995 5.77639 18.7417 5.83837 18.7127C5.92513 18.6673 6.17302 18.6549 7.6893 18.6549L7.81324 18.7788C7.88348 18.8491 7.93719 18.9482 7.93719 19.0061C7.93719 19.0639 7.89174 19.1548 7.8339 19.2127C7.74301 19.3077 7.70582 19.3159 7.33811 19.3159C7.11914 19.3159 6.93736 19.3325 6.92496 19.3573C6.91257 19.3779 7.04891 19.506 7.22656 19.6382C7.40009 19.7663 7.70169 19.9687 7.89587 20.0885C8.09005 20.2042 8.3586 20.353 8.49495 20.4232C8.63129 20.4893 8.88331 20.6009 9.0527 20.6711C9.2221 20.7372 9.43694 20.824 9.52783 20.857C9.61872 20.8901 9.86248 20.9644 10.0649 21.0223C10.2674 21.0801 10.6516 21.171 10.9119 21.2247C11.3416 21.3115 11.4944 21.3197 12.5232 21.3156C13.585 21.3156 13.6924 21.3073 14.1758 21.2041C14.4609 21.1462 14.9525 21.0099 15.2707 20.9066C15.5888 20.8033 16.1011 20.5926 16.4068 20.4397C16.7126 20.2869 17.134 20.0514 17.3364 19.915C17.5389 19.7787 17.8859 19.5267 18.1008 19.3531C18.3156 19.1796 18.6503 18.8739 18.8403 18.6714C19.0304 18.469 19.2865 18.1839 19.4022 18.0352C19.522 17.8864 19.741 17.5807 19.8939 17.3535C20.0467 17.1262 20.2781 16.7172 20.4103 16.4445C20.5466 16.1718 20.7202 15.7711 20.8028 15.5562C20.8813 15.3414 20.9928 14.9861 21.0466 14.7713C21.1044 14.5564 21.1829 14.2011 21.2242 13.9863C21.2862 13.6723 21.3027 13.3831 21.3027 12.5196C21.3027 11.8007 21.2862 11.3421 21.249 11.1355C21.216 10.9661 21.1375 10.6108 21.0755 10.3505C21.0094 10.0902 20.8937 9.69773 20.8152 9.48289C20.7367 9.26805 20.6004 8.93339 20.5095 8.73921C20.4186 8.54503 20.2781 8.27235 20.1955 8.13187C20.1046 7.97901 20.0426 7.81375 20.0385 7.73112C20.0343 7.61956 20.0591 7.56999 20.15 7.50388C20.212 7.4543 20.2987 7.41712 20.3483 7.41712ZM6.82167 13.2839C6.86712 13.2839 6.94975 13.3087 7.00759 13.3376C7.06543 13.3624 7.12741 13.4326 7.14806 13.4905C7.16872 13.5483 7.23483 13.7797 7.30093 14.0069C7.36704 14.2342 7.52403 14.6349 7.65211 14.8952C7.78019 15.1555 7.9909 15.5108 8.11898 15.6802C8.24705 15.8496 8.50321 16.1429 8.69326 16.333C8.87918 16.5189 9.17252 16.7751 9.34191 16.8949C9.5113 17.0188 9.82117 17.2047 10.0236 17.308C10.2261 17.4154 10.5896 17.5642 10.8293 17.6385C11.0689 17.717 11.4035 17.8038 11.5729 17.8327C11.7506 17.8658 12.1514 17.8864 12.5025 17.8864C12.9074 17.8864 13.2421 17.8575 13.4734 17.8121C13.6676 17.7749 13.9734 17.6964 14.1552 17.6385C14.3369 17.5807 14.6716 17.4402 14.8988 17.3287C15.1261 17.213 15.4318 17.0353 15.5805 16.9279C15.7293 16.8246 15.9937 16.5974 16.1755 16.428C16.3531 16.2545 16.5969 15.9942 16.7126 15.8455C16.8324 15.6967 17.0018 15.4571 17.0927 15.3084C17.1836 15.1596 17.3116 14.9283 17.3736 14.7919C17.4397 14.6556 17.543 14.3953 17.605 14.2135C17.667 14.0317 17.7372 13.7756 17.7661 13.6475C17.8033 13.445 17.8322 13.3996 17.9355 13.3459C18.0016 13.3128 18.0966 13.2839 18.1421 13.2839C18.1875 13.2839 18.2702 13.3293 18.328 13.3872C18.39 13.4492 18.4313 13.5359 18.4313 13.6062C18.4313 13.6681 18.3858 13.8871 18.328 14.0896C18.2702 14.292 18.1793 14.5812 18.1173 14.7299C18.0595 14.8787 17.9438 15.1266 17.8611 15.2877C17.7826 15.4488 17.6009 15.7463 17.4645 15.9487C17.3199 16.1595 17.0183 16.5148 16.758 16.7751C16.4853 17.0519 16.1466 17.3328 15.9111 17.4939C15.6962 17.6385 15.3616 17.8369 15.1674 17.9319C14.9732 18.0269 14.6757 18.155 14.5063 18.2128C14.3369 18.2707 14.0395 18.3574 13.8453 18.4029C13.6511 18.4525 13.2627 18.5103 12.9777 18.5392C12.5893 18.5723 12.3455 18.5764 12.0068 18.5392C11.7547 18.5144 11.4035 18.4648 11.2218 18.4277C11.04 18.3864 10.7218 18.2996 10.5194 18.2335C10.317 18.1632 9.99056 18.0269 9.79638 17.9319C9.6022 17.8369 9.26754 17.6385 9.0527 17.4939C8.81721 17.3369 8.48668 17.0601 8.22226 16.7998C7.98263 16.5561 7.68516 16.2132 7.55709 16.0314C7.42901 15.8496 7.25135 15.5604 7.15633 15.391C7.06543 15.2216 6.93736 14.953 6.87125 14.7919C6.80515 14.6308 6.70186 14.325 6.64402 14.1102C6.58204 13.8954 6.53246 13.664 6.5366 13.602C6.5366 13.5359 6.57791 13.4409 6.63575 13.3872C6.68946 13.3293 6.77209 13.2839 6.82167 13.2839Z" fill="white"/>
<path d="M12.4406 3.00051L12.4385 2.70051L12.4384 2.70051L12.4406 3.00051ZM13.8246 3.08314L13.7803 3.37984L13.7822 3.38012L13.8246 3.08314ZM15.6838 3.53347L15.7873 3.25183L15.7822 3.25005L15.6838 3.53347ZM16.6754 3.96728L16.5439 4.23692L16.5451 4.23754L16.6754 3.96728ZM18.2784 4.94233L18.4638 4.70635L18.4575 4.70166L18.2784 4.94233ZM18.6957 4.24823L18.9608 4.3886L18.9661 4.37872L18.9706 4.36848L18.6957 4.24823ZM18.8197 4.10363L18.9415 4.37777L18.9537 4.37235L18.9654 4.36587L18.8197 4.10363ZM19.208 4.1532L19.41 3.93108L19.4018 3.92419L19.208 4.1532ZM19.27 6.16113L19.5322 6.30682L19.5387 6.29516L19.5441 6.28297L19.27 6.16113ZM19.1254 6.28508L18.9984 6.01294L18.9862 6.01933L19.1254 6.28508ZM17.1588 6.24376L16.958 6.46682L16.9635 6.47154L17.1588 6.24376ZM17.1505 5.76037L17.3287 6.00214L17.3393 5.99355L17.1505 5.76037ZM17.638 5.68187L17.6341 5.98187H17.638V5.68187ZM17.762 5.37614L17.9449 5.13833L17.942 5.13614L17.762 5.37614ZM17.0679 4.91341L17.2251 4.65788L17.2215 4.65572L17.0679 4.91341ZM15.2707 4.0871L15.3667 3.80287L15.3631 3.8017L15.2707 4.0871ZM14.1758 3.79376L14.2392 3.50053L14.2373 3.50012L14.1758 3.79376ZM10.9119 3.7731L10.852 3.47915L10.8513 3.47929L10.9119 3.7731ZM10.1269 3.95489L10.2047 4.24472L10.2112 4.24281L10.1269 3.95489ZM4.68154 8.28474L4.94322 8.43154L4.94588 8.42659L4.68154 8.28474ZM4.32209 9.04908L4.5981 9.16672L4.59968 9.16284L4.32209 9.04908ZM3.9957 9.95801L4.28216 10.0472L4.28344 10.0429L3.9957 9.95801ZM3.7602 10.9083L4.05417 10.9682L4.05455 10.9662L3.7602 10.9083ZM3.75607 14.0689L3.46155 14.1261L3.46226 14.1295L3.75607 14.0689ZM4.76004 16.8494L4.49733 16.9946L4.50217 17.0027L4.76004 16.8494ZM4.81788 17.4774L4.61269 17.2586L4.60511 17.2657L4.59804 17.2733L4.81788 17.4774ZM4.43778 17.5187L4.6043 17.2689L4.595 17.2632L4.43778 17.5187ZM4.16509 17.1386L3.90312 17.2848L3.90462 17.2875L4.16509 17.1386ZM3.79326 16.3826L3.51773 16.5013L3.5195 16.5053L3.79326 16.3826ZM3.25202 14.8126L3.54311 14.7398L3.54171 14.7346L3.25202 14.8126ZM3.07437 13.9863L2.77838 14.0356L2.77962 14.0422L3.07437 13.9863ZM3.09089 10.9083L2.79652 10.8503L2.79578 10.8544L3.09089 10.9083ZM3.30987 9.95801L3.0221 9.8731L3.02088 9.87748L3.30987 9.95801ZM3.58668 9.11105L3.86672 9.21876L3.86846 9.21401L3.58668 9.11105ZM5.87555 5.66122L6.08418 5.8768L6.08423 5.87674L5.87555 5.66122ZM6.67707 4.95472L6.85709 5.19475L6.8605 5.19211L6.67707 4.95472ZM7.33811 4.48786L7.4992 4.74099L7.50321 4.73835L7.33811 4.48786ZM8.18508 4.0086L8.05247 3.73948L8.04937 3.74105L8.18508 4.0086ZM10.1682 3.26905L10.2386 3.56072L10.2433 3.5595L10.1682 3.26905ZM11.1185 3.08314L11.1615 3.38006L11.1656 3.37941L11.1185 3.08314ZM12.424 6.42968V6.12968H12.3992L12.3747 6.13376L12.424 6.42968ZM12.9818 6.46686L12.9554 6.76574L12.9598 6.76606L12.9818 6.46686ZM14.6633 6.84283L14.7772 6.56527L14.7747 6.56429L14.6633 6.84283ZM15.2417 7.10312L15.1076 7.37147L15.1105 7.37289L15.2417 7.10312ZM16.5886 8.04511L16.3815 8.26229L16.3868 8.26709L16.5886 8.04511ZM18.2288 10.5984L18.5147 10.5073L18.5135 10.5035L18.2288 10.5984ZM18.423 11.3008L18.1252 11.3365L18.1255 11.3389L18.423 11.3008ZM18.3363 11.6024L18.5484 11.8145L18.5529 11.8099L18.3363 11.6024ZM17.9066 11.6313L18.1095 11.41L18.1004 11.4023L17.9066 11.6313ZM17.7868 11.4371L17.4919 11.4924L17.4926 11.4959L17.7868 11.4371ZM15.5186 8.03685L15.3495 8.28475L15.3535 8.28734L15.5186 8.03685ZM14.1345 7.35928L14.0433 7.64513L14.0489 7.64679L14.1345 7.35928ZM13.4528 7.17749L13.5129 6.88354L13.5084 6.88269L13.4528 7.17749ZM11.4077 7.20641L11.4685 7.50023L11.4731 7.49918L11.4077 7.20641ZM10.1062 7.65675L10.2382 7.9262L10.2426 7.92398L10.1062 7.65675ZM9.4452 8.03272L9.60712 8.28532L9.61161 8.28233L9.4452 8.03272ZM8.76763 8.59461L8.97547 8.81094L8.97556 8.81086L8.76763 8.59461ZM8.16855 9.25565L8.40933 9.43469L8.41225 9.43061L8.16855 9.25565ZM7.47032 10.4951L7.74812 10.6085L7.75003 10.6036L7.47032 10.4951ZM7.00759 11.6643L7.12577 11.9401L7.13387 11.9366L7.14176 11.9327L7.00759 11.6643ZM6.62749 11.6024L6.40652 11.8057L6.41536 11.8145L6.62749 11.6024ZM6.54073 11.3008L6.24435 11.2533L6.24316 11.2626L6.54073 11.3008ZM6.72252 10.6397L7.00715 10.7346L7.00845 10.7305L6.72252 10.6397ZM7.09849 9.73078L7.36498 9.86862L7.36681 9.86494L7.09849 9.73078ZM7.63972 8.86316L7.39871 8.68448L7.39673 8.6872L7.63972 8.86316ZM9.0527 7.50388L9.2179 7.75434L9.22154 7.75186L9.0527 7.50388ZM9.75506 7.0866L9.88695 7.3561L9.8915 7.35378L9.75506 7.0866ZM10.5194 6.7726L10.6127 7.05776L10.6174 7.05616L10.5194 6.7726ZM20.3483 7.41712V7.71712H20.3608L20.3732 7.71608L20.3483 7.41712ZM20.5384 7.49149L20.7239 7.25534L20.7127 7.24737L20.5384 7.49149ZM20.9143 8.10295L20.6468 8.23863L20.6483 8.2416L20.9143 8.10295ZM21.344 9.02842L21.064 9.13613L21.0659 9.14076L21.344 9.02842ZM21.8192 10.6397L22.1138 10.5831L22.1127 10.5776L21.8192 10.6397ZM21.9431 11.466L21.6447 11.4969L21.6452 11.5011L21.9431 11.466ZM21.972 12.7881L21.6721 12.7795L21.6721 12.7802L21.972 12.7881ZM21.8687 14.1102L22.1635 14.1661L22.1635 14.166L21.8687 14.1102ZM21.6993 14.8745L21.4098 14.7956L21.4083 14.8018L21.6993 14.8745ZM21.0135 16.6924L20.7451 16.5582L20.7433 16.5622L21.0135 16.6924ZM20.4351 17.7253L20.1862 17.5578L20.1841 17.561L20.4351 17.7253ZM19.8567 18.5103L19.6266 18.3178L19.6243 18.3206L19.8567 18.5103ZM19.1047 19.3201L18.8962 19.1044L18.8944 19.1061L19.1047 19.3201ZM17.605 20.5265L17.7664 20.7794L17.7702 20.7769L17.605 20.5265ZM16.8407 20.9603L16.9729 21.2296L16.9768 21.2276L16.8407 20.9603ZM15.6012 21.4933L15.6961 21.7779L15.7025 21.7756L15.6012 21.4933ZM14.0932 21.8816L14.1474 22.1767L14.1493 22.1763L14.0932 21.8816ZM12.7091 21.9932L12.716 22.2931L12.7163 22.2931L12.7091 21.9932ZM11.3044 21.9436L11.2594 22.2402L11.2637 22.2408L11.3044 21.9436ZM7.33811 20.5141L7.173 20.7646L7.17705 20.7672L7.33811 20.5141ZM6.68533 20.0555L6.49992 20.2915L6.50623 20.2962L6.68533 20.0555ZM6.26805 20.7537L5.99962 20.6195L5.99619 20.6269L6.26805 20.7537ZM6.1441 20.8983L6.26594 21.1725L6.27813 21.1671L6.28979 21.1606L6.1441 20.8983ZM5.75574 20.8322L5.96787 20.6201L5.75574 20.8322ZM5.66484 19.8241L5.96484 19.8255V19.8241H5.66484ZM5.69376 18.8367L5.43152 18.691L5.42504 18.7027L5.41962 18.7148L5.69376 18.8367ZM5.83837 18.7127L5.96537 18.9849L5.97757 18.9785L5.83837 18.7127ZM7.6893 18.6549L7.90143 18.4428L7.81356 18.3549H7.6893V18.6549ZM7.8339 19.2127L7.62171 19.0005L7.61711 19.0053L7.8339 19.2127ZM6.92496 19.3573L7.18221 19.5116L7.18814 19.5017L7.19329 19.4914L6.92496 19.3573ZM7.22656 19.6382L7.04746 19.8789L7.04841 19.8796L7.22656 19.6382ZM7.89587 20.0885L7.73832 20.3439L7.74233 20.3463L7.89587 20.0885ZM8.49495 20.4232L8.35752 20.69L8.36406 20.6931L8.49495 20.4232ZM9.0527 20.6711L8.93777 20.9483L8.94364 20.9506L9.0527 20.6711ZM10.9119 21.2247L10.8513 21.5185L10.8525 21.5188L10.9119 21.2247ZM12.5232 21.3156L12.5232 21.0156L12.522 21.0156L12.5232 21.3156ZM14.1758 21.2041L14.1162 20.91L14.1131 20.9107L14.1758 21.2041ZM19.4022 18.0352L19.1685 17.8469L19.1654 17.851L19.4022 18.0352ZM20.4103 16.4445L20.142 16.3104L20.1404 16.3136L20.4103 16.4445ZM20.8028 15.5562L21.0828 15.664L21.0846 15.6592L20.8028 15.5562ZM21.0466 14.7713L20.7568 14.6933L20.7555 14.6985L21.0466 14.7713ZM21.2242 13.9863L20.9299 13.9282L20.9296 13.9296L21.2242 13.9863ZM21.249 11.1355L21.5443 11.0824L21.5434 11.078L21.249 11.1355ZM21.0755 10.3505L21.3674 10.281L21.3662 10.2767L21.0755 10.3505ZM20.1955 8.13187L20.454 7.97977L20.4533 7.97855L20.1955 8.13187ZM20.0385 7.73112L19.7386 7.74222L19.7388 7.7461L20.0385 7.73112ZM20.15 7.50388L20.3267 7.74676L20.3374 7.73814L20.15 7.50388ZM7.00759 13.3376L6.87343 13.6059L6.88131 13.6099L6.88942 13.6134L7.00759 13.3376ZM8.69326 16.333L8.90539 16.1208L8.90539 16.1208L8.69326 16.333ZM9.34191 16.8949L9.51909 16.6527L9.51515 16.6499L9.34191 16.8949ZM10.0236 17.308L10.1642 17.043L10.16 17.0408L10.0236 17.308ZM10.8293 17.6385L10.9227 17.3534L10.9182 17.352L10.8293 17.6385ZM11.5729 17.8327L11.6278 17.5378L11.6234 17.537L11.5729 17.8327ZM13.4734 17.8121L13.417 17.5174L13.4156 17.5177L13.4734 17.8121ZM14.8988 17.3287L15.031 17.598L15.0349 17.596L14.8988 17.3287ZM15.5805 16.9279L15.4094 16.6815L15.4049 16.6847L15.5805 16.9279ZM16.1755 16.428L16.38 16.6475L16.3851 16.6426L16.1755 16.428ZM16.7126 15.8455L16.4789 15.6572L16.4758 15.6613L16.7126 15.8455ZM17.3736 14.7919L17.1036 14.661L17.1005 14.6678L17.3736 14.7919ZM17.7661 13.6475L18.059 13.7136L18.0612 13.7017L17.7661 13.6475ZM17.9355 13.3459L17.8013 13.0775L17.7971 13.0797L17.9355 13.3459ZM18.328 13.3872L18.5401 13.1751L18.328 13.3872ZM18.1173 14.7299L17.8403 14.6145L17.8377 14.6212L18.1173 14.7299ZM17.8611 15.2877L17.5941 15.1508L17.5914 15.1563L17.8611 15.2877ZM17.4645 15.9487L17.7119 16.1185L17.7133 16.1163L17.4645 15.9487ZM16.758 16.7751L16.5459 16.5629L16.5443 16.5645L16.758 16.7751ZM15.9111 17.4939L16.0786 17.7428L16.0805 17.7415L15.9111 17.4939ZM13.8453 18.4029L13.7769 18.1107L13.7711 18.1122L13.8453 18.4029ZM12.9777 18.5392L13.0031 18.8382L13.0079 18.8377L12.9777 18.5392ZM12.0068 18.5392L12.0395 18.241L12.0361 18.2407L12.0068 18.5392ZM11.2218 18.4277L11.1553 18.7203L11.1616 18.7216L11.2218 18.4277ZM10.5194 18.2335L10.4211 18.517L10.4263 18.5187L10.5194 18.2335ZM9.0527 17.4939L9.22022 17.2451L9.21911 17.2443L9.0527 17.4939ZM8.22226 16.7998L8.0083 17.0102L8.01181 17.0136L8.22226 16.7998ZM7.15633 15.391L6.89193 15.5329L6.89468 15.5378L7.15633 15.391ZM6.64402 14.1102L6.93375 14.0322L6.93226 14.0271L6.64402 14.1102ZM6.5366 13.602L6.83593 13.622L6.8366 13.612V13.602H6.5366ZM6.63575 13.3872L6.83989 13.607L6.84803 13.5995L6.85559 13.5913L6.63575 13.3872ZM12.4426 3.3005C13.0472 3.29644 13.3574 3.31661 13.7803 3.37984L13.869 2.78643C13.4077 2.71745 13.0652 2.69631 12.4385 2.70051L12.4426 3.3005ZM13.7822 3.38012C14.0913 3.42427 14.5425 3.5131 14.7814 3.57577L14.9336 2.9954C14.6685 2.92585 14.1942 2.83289 13.8671 2.78615L13.7822 3.38012ZM14.7814 3.57577C15.0275 3.64031 15.3917 3.74967 15.5855 3.8169L15.7822 3.25005C15.571 3.1768 15.1916 3.06306 14.9336 2.9954L14.7814 3.57577ZM15.5804 3.81507C15.7706 3.88493 16.2112 4.07464 16.5439 4.23692L16.8069 3.69765C16.462 3.52941 16.002 3.33075 15.7873 3.25187L15.5804 3.81507ZM16.5451 4.23754C16.8834 4.40056 17.2952 4.6252 17.4605 4.73421L17.7907 4.23324C17.5926 4.10262 17.1532 3.86453 16.8056 3.69703L16.5451 4.23754ZM17.4605 4.73421C17.6371 4.85056 17.9257 5.05382 18.0993 5.183L18.4575 4.70166C18.2758 4.56642 17.9778 4.35652 17.7907 4.23324L17.4605 4.73421ZM18.0931 5.17822C18.1831 5.24892 18.2683 5.31263 18.3339 5.35946C18.3663 5.38262 18.396 5.40315 18.42 5.41877C18.4315 5.42623 18.4454 5.43496 18.4593 5.44279C18.4658 5.44644 18.4773 5.45271 18.4913 5.45894C18.4982 5.46201 18.5102 5.4671 18.5255 5.4719C18.5359 5.47519 18.571 5.48609 18.6172 5.48609V4.88609C18.6627 4.88609 18.6967 4.89677 18.7058 4.89965C18.7197 4.90404 18.7302 4.90851 18.7352 4.91076C18.7455 4.91535 18.7523 4.91918 18.7531 4.91963C18.7556 4.92104 18.7541 4.92032 18.7469 4.91558C18.7333 4.90679 18.7116 4.89195 18.6826 4.87122C18.6253 4.83024 18.5473 4.77208 18.4638 4.70643L18.0931 5.17822ZM18.6172 5.48609C18.7186 5.48609 18.789 5.43705 18.8245 5.40347C18.8585 5.37135 18.8771 5.33878 18.8853 5.32301C18.9022 5.29067 18.9097 5.26199 18.9123 5.25191C18.9187 5.22694 18.9219 5.20315 18.9235 5.18923C18.9273 5.15754 18.9299 5.11877 18.9318 5.07919C18.9358 4.99785 18.9379 4.8894 18.9379 4.77293H18.3379C18.3379 4.8837 18.3358 4.98183 18.3325 5.05026C18.3308 5.08556 18.329 5.10747 18.3278 5.11774C18.327 5.12481 18.3274 5.11731 18.331 5.1034C18.3322 5.09885 18.3382 5.07438 18.3537 5.04488C18.3612 5.03053 18.379 4.99903 18.4122 4.96763C18.4469 4.93476 18.5166 4.88609 18.6172 4.88609V5.48609ZM18.9379 4.77293C18.9379 4.64737 18.9428 4.54542 18.9511 4.47051C18.9552 4.43302 18.9597 4.40614 18.9637 4.38856C18.9684 4.36758 18.9696 4.37208 18.9608 4.3886L18.4306 4.10786C18.3826 4.19848 18.3645 4.31527 18.3546 4.40501C18.3432 4.5088 18.3379 4.63408 18.3379 4.77293H18.9379ZM18.9706 4.36848C18.9702 4.3694 18.9708 4.36788 18.973 4.36453C18.9751 4.36128 18.9776 4.35806 18.9798 4.35552C18.9822 4.35275 18.9826 4.35286 18.9797 4.35524C18.9781 4.35653 18.9747 4.35926 18.9693 4.3628C18.9642 4.36615 18.9548 4.37185 18.9415 4.37777L18.6978 3.82948C18.6213 3.86349 18.5634 3.92044 18.5294 3.95915C18.4898 4.00406 18.4498 4.06186 18.4209 4.12798L18.9706 4.36848ZM18.9654 4.36587C18.9564 4.37084 18.9496 4.37372 18.9462 4.37506C18.9427 4.37648 18.9407 4.37708 18.9406 4.37709C18.9404 4.37714 18.9414 4.37686 18.9434 4.37638C18.9455 4.37591 18.9482 4.37534 18.9516 4.37474C18.9585 4.37351 18.9667 4.37241 18.9753 4.37165C18.9839 4.37088 18.9915 4.37057 18.9973 4.37057V3.77057C18.9483 3.77057 18.8957 3.77529 18.8468 3.78397C18.8049 3.79139 18.7366 3.80656 18.674 3.84138L18.9654 4.36587ZM18.9973 4.37057C18.9917 4.37057 18.9879 4.37019 18.9862 4.36998C18.9845 4.36976 18.984 4.36961 18.9847 4.36978C18.9865 4.37018 18.9907 4.37133 18.9966 4.37365C19.0023 4.37594 19.0076 4.37855 19.0117 4.38093C19.0161 4.38346 19.0167 4.38429 19.0142 4.38222L19.4018 3.92419C19.3453 3.87636 19.2794 3.8404 19.2181 3.81604C19.1583 3.7923 19.0803 3.77057 18.9973 3.77057V4.37057ZM19.0062 4.37519C19.0261 4.39323 19.0031 4.37559 18.9886 4.34451C18.9788 4.32345 18.9839 4.3194 18.9887 4.37431C18.9986 4.48586 18.9989 4.69939 18.9989 5.16543H19.5989C19.5989 4.71841 19.5993 4.46713 19.5864 4.3215C19.5799 4.24781 19.5679 4.16707 19.5325 4.09113C19.4925 4.00519 19.4354 3.95449 19.4098 3.93122L19.0062 4.37519ZM18.9989 5.16543C18.9989 5.41954 18.9958 5.6562 18.9908 5.83286C18.9882 5.92155 18.9853 5.9929 18.9821 6.04296C18.9805 6.06837 18.979 6.0851 18.9779 6.09453C18.9774 6.09945 18.9773 6.09905 18.978 6.09524C18.9783 6.09329 18.9793 6.08807 18.9812 6.08083C18.9827 6.07519 18.987 6.05922 18.9959 6.03929L19.5441 6.28297C19.5608 6.24556 19.5667 6.21113 19.5681 6.20365C19.5708 6.18898 19.5727 6.17467 19.574 6.16284C19.5768 6.13875 19.579 6.11051 19.5809 6.08086C19.5847 6.02079 19.5879 5.9416 19.5905 5.85005C19.5958 5.66623 19.5989 5.42363 19.5989 5.16543H18.9989ZM19.0077 6.01544C19.0124 6.00714 19.0162 6.00165 19.0181 5.99909C19.0201 5.99634 19.0213 5.99498 19.0213 5.99494C19.0214 5.99483 19.0209 5.99543 19.0197 5.99663C19.0185 5.99781 19.0169 5.9993 19.015 6.00099C19.011 6.00451 19.0067 6.00783 19.0028 6.01046C18.9988 6.0132 18.9972 6.01386 18.9985 6.01322L19.2523 6.55693C19.3149 6.52769 19.3695 6.48824 19.4114 6.45142C19.4497 6.4177 19.4984 6.36768 19.5322 6.30682L19.0077 6.01544ZM18.9862 6.01933C19.0064 6.00874 19.0115 6.01167 18.9773 6.01732C18.9469 6.02236 18.8996 6.02741 18.8274 6.03153C18.683 6.03976 18.4667 6.04292 18.1421 6.04292V6.64292C18.4661 6.64292 18.6981 6.63988 18.8615 6.63055C18.9432 6.62589 19.0147 6.61932 19.0754 6.60925C19.1324 6.5998 19.201 6.58414 19.2646 6.55083L18.9862 6.01933ZM18.1421 6.04292C17.7019 6.04292 17.5061 6.04249 17.4014 6.03201C17.3541 6.02728 17.3526 6.02252 17.3652 6.02829C17.378 6.03417 17.3851 6.04265 17.354 6.01598L16.9635 6.47154C16.9903 6.49446 17.0418 6.54012 17.1155 6.57388C17.1891 6.60754 17.2651 6.62137 17.3417 6.62904C17.4849 6.64335 17.7229 6.64292 18.1421 6.64292V6.04292ZM17.3595 6.02077C17.3474 6.00991 17.3427 6.00429 17.3416 6.00289C17.341 6.0022 17.3433 6.00509 17.3459 6.01073C17.3484 6.01636 17.3489 6.01982 17.3487 6.01854C17.3483 6.01642 17.3472 6.00859 17.3472 5.99174H16.7472C16.7472 6.07402 16.7573 6.1645 16.7982 6.25575C16.839 6.34707 16.8993 6.41386 16.9581 6.46675L17.3595 6.02077ZM17.3472 5.99174C17.3472 5.97434 17.3482 5.96606 17.3486 5.96362C17.3489 5.96187 17.3482 5.96708 17.3444 5.97596C17.3425 5.98029 17.3401 5.98476 17.3374 5.98913C17.3347 5.99348 17.332 5.99705 17.3296 5.99978C17.325 6.00517 17.3233 6.00574 17.3285 6.00189L16.9726 5.51886C16.9021 5.57076 16.8366 5.63953 16.7945 5.73587C16.7549 5.82649 16.7472 5.91683 16.7472 5.99174H17.3472ZM17.3393 5.99355C17.3452 5.98873 17.3441 5.99041 17.3395 5.99245C17.3356 5.99413 17.3382 5.99214 17.3547 5.98949C17.3967 5.98281 17.4716 5.97974 17.6341 5.98185L17.6419 5.3819C17.4864 5.37988 17.3609 5.38094 17.2603 5.39698C17.139 5.41632 17.0474 5.45787 16.9618 5.5272L17.3393 5.99355ZM17.638 5.98187C17.7517 5.98187 17.8594 5.97756 17.9444 5.969C17.9855 5.96486 18.03 5.95889 18.07 5.94947C18.089 5.94499 18.118 5.93724 18.1487 5.92356C18.1613 5.91796 18.2548 5.87936 18.3071 5.77472L17.7705 5.50639C17.7984 5.45053 17.8367 5.41834 17.8562 5.40393C17.8774 5.38823 17.8957 5.37942 17.9049 5.37534C17.9151 5.37083 17.9227 5.36829 17.9263 5.36718C17.9283 5.36655 17.9298 5.36613 17.9308 5.36587C17.9317 5.36562 17.9323 5.36549 17.9324 5.36547C17.9325 5.36544 17.9314 5.3657 17.9289 5.36616C17.9265 5.36661 17.9231 5.36718 17.9188 5.36783C17.91 5.36915 17.8985 5.37059 17.8843 5.37202C17.8256 5.37793 17.7392 5.38187 17.638 5.38187V5.98187ZM18.3071 5.77472C18.3741 5.64071 18.3185 5.52138 18.3101 5.50285C18.293 5.46533 18.2717 5.43657 18.2593 5.42087C18.2325 5.38678 18.1997 5.35397 18.1708 5.32681C18.1101 5.26987 18.0293 5.20328 17.9449 5.13835L17.5791 5.61393C17.6558 5.67294 17.7196 5.72616 17.7601 5.76425C17.7818 5.7846 17.7888 5.79311 17.7875 5.79156C17.7867 5.79044 17.784 5.78698 17.7804 5.78147C17.7771 5.77637 17.7707 5.76609 17.764 5.75148C17.758 5.73818 17.747 5.71116 17.7421 5.67425C17.7371 5.63667 17.7368 5.57383 17.7705 5.50639L18.3071 5.77472ZM17.942 5.13614C17.7662 5.00427 17.4434 4.79223 17.2251 4.65791L16.9107 5.1689C17.1221 5.29901 17.4273 5.50012 17.582 5.61614L17.942 5.13614ZM17.2215 4.65572C17.0004 4.52394 16.6194 4.3163 16.3682 4.19936L16.115 4.74331C16.343 4.84947 16.7056 5.04672 16.9143 5.17109L17.2215 4.65572ZM16.3682 4.19936C16.1173 4.08254 15.669 3.90506 15.3667 3.8029L15.1746 4.3713C15.4591 4.46746 15.8866 4.63702 16.115 4.74331L16.3682 4.19936ZM15.3631 3.8017C15.0596 3.70338 14.5541 3.56862 14.2392 3.50054L14.1124 4.08698C14.409 4.15111 14.8951 4.28077 15.1782 4.3725L15.3631 3.8017ZM14.2373 3.50012C13.9685 3.44386 13.7998 3.41126 13.5596 3.39479C13.3284 3.37894 13.0312 3.37808 12.5025 3.37808V3.97808C13.0399 3.97808 13.3128 3.97928 13.5185 3.99338C13.7152 4.00687 13.8502 4.03211 14.1144 4.0874L14.2373 3.50012ZM12.5025 3.37808C11.5029 3.37808 11.3103 3.38571 10.852 3.47915L10.9718 4.06706C11.3646 3.98698 11.5025 3.97808 12.5025 3.97808V3.37808ZM10.8513 3.47929C10.5926 3.53267 10.2256 3.61343 10.0426 3.66697L10.2112 4.24281C10.367 4.19719 10.7106 4.12096 10.9725 4.06691L10.8513 3.47929ZM10.0492 3.66514C9.86708 3.71399 9.49352 3.83738 9.21498 3.94289L9.42752 4.50399C9.69434 4.40292 10.0479 4.28668 10.2046 4.24464L10.0492 3.66514ZM9.21498 3.94289C8.93514 4.04889 8.55364 4.21399 8.36078 4.31042L8.62911 4.84708C8.79982 4.76172 9.162 4.60456 9.42752 4.50399L9.21498 3.94289ZM8.36078 4.31042C8.17117 4.40523 7.85763 4.57895 7.65571 4.70354L7.97077 5.21416C8.15722 5.09913 8.45514 4.93406 8.62911 4.84708L8.36078 4.31042ZM7.65571 4.70354C7.45165 4.82945 7.11649 5.06289 6.90638 5.22584L7.27407 5.69997C7.46884 5.54892 7.78647 5.32788 7.97077 5.21416L7.65571 4.70354ZM6.90638 5.22584C6.69515 5.38964 6.35331 5.68521 6.14535 5.88044L6.55601 6.31788C6.75294 6.13301 7.0804 5.85016 7.27407 5.69997L6.90638 5.22584ZM6.14535 5.88044C5.93267 6.0801 5.61345 6.42488 5.43146 6.6502L5.89822 7.0272C6.06328 6.82285 6.3638 6.49832 6.55601 6.31788L6.14535 5.88044ZM5.43146 6.6502C5.25271 6.87152 4.99137 7.22553 4.84999 7.43546L5.34765 7.77062C5.47896 7.57565 5.72993 7.23557 5.89822 7.0272L5.43146 6.6502ZM4.84999 7.43546C4.70972 7.64374 4.51405 7.96238 4.41719 8.1429L4.94588 8.42659C5.03081 8.26831 5.21524 7.96722 5.34765 7.77062L4.84999 7.43546ZM4.41989 8.13797C4.31698 8.32141 4.15068 8.67624 4.0445 8.93531L4.59968 9.16284C4.70009 8.91786 4.85604 8.58686 4.94318 8.43152L4.41989 8.13797ZM4.04612 8.93145C3.93404 9.1944 3.78554 9.61023 3.70797 9.87311L4.28344 10.0429C4.3546 9.80175 4.49531 9.4078 4.59807 9.16671L4.04612 8.93145ZM3.70927 9.8688C3.62682 10.1335 3.52109 10.5699 3.46586 10.8503L4.05455 10.9662C4.10674 10.7013 4.20758 10.2866 4.28213 10.0472L3.70927 9.8688ZM3.46624 10.8484C3.3688 11.3267 3.36105 11.5101 3.36105 12.4989H3.96105C3.96105 11.5128 3.96981 11.3822 4.05417 10.9681L3.46624 10.8484ZM3.36105 12.4989C3.36105 13.477 3.37313 13.6706 3.46157 14.1261L4.05057 14.0117C3.97375 13.6161 3.96105 13.471 3.96105 12.4989H3.36105ZM3.46226 14.1295C3.51675 14.3936 3.60502 14.7724 3.66111 14.9752L4.2394 14.8152C4.18807 14.6297 4.10281 14.2648 4.04988 14.0083L3.46226 14.1295ZM3.66111 14.9752C3.71744 15.1788 3.82799 15.5147 3.91017 15.7267L4.46959 15.5098C4.39478 15.3168 4.29049 15 4.2394 14.8152L3.66111 14.9752ZM3.91017 15.7267C3.99013 15.9329 4.11653 16.2365 4.19431 16.405L4.73908 16.1535C4.66813 15.9998 4.54664 15.7085 4.46959 15.5098L3.91017 15.7267ZM4.19431 16.405C4.27303 16.5756 4.40915 16.8347 4.49746 16.9945L5.02261 16.7043C4.93739 16.5501 4.80909 16.3052 4.73908 16.1535L4.19431 16.405ZM4.50217 17.0027C4.53963 17.0657 4.573 17.1343 4.59614 17.1922C4.6077 17.2211 4.61534 17.2439 4.61964 17.2595C4.62535 17.2801 4.62116 17.2734 4.62116 17.2502H5.22117C5.22117 17.1919 5.2082 17.1366 5.1979 17.0994C5.18619 17.0571 5.17059 17.0128 5.15323 16.9694C5.11853 16.8826 5.07134 16.786 5.0179 16.6961L4.50217 17.0027ZM4.62116 17.2502C4.62116 17.2442 4.62187 17.2415 4.62174 17.2421C4.62164 17.2425 4.62113 17.2444 4.61987 17.2473C4.61863 17.2501 4.6171 17.2528 4.61553 17.2551C4.61395 17.2573 4.61285 17.2584 4.61269 17.2586L5.02306 17.6963C5.14742 17.5797 5.22117 17.4105 5.22117 17.2502H4.62116ZM4.59804 17.2733C4.59833 17.273 4.59655 17.2749 4.59243 17.278C4.58841 17.281 4.5841 17.2837 4.58042 17.2856C4.57644 17.2877 4.57592 17.2875 4.57966 17.2864C4.58171 17.2857 4.5861 17.2844 4.59269 17.2833C4.5991 17.2821 4.6097 17.2807 4.62369 17.2807V17.8807C4.72103 17.8807 4.80702 17.8445 4.86115 17.8159C4.92186 17.7837 4.985 17.7383 5.03771 17.6815L4.59804 17.2733ZM4.62369 17.2807C4.63017 17.2807 4.6345 17.2811 4.63633 17.2813C4.63826 17.2815 4.63885 17.2817 4.63802 17.2815C4.63613 17.2812 4.63166 17.2801 4.62537 17.2779C4.61918 17.2759 4.61327 17.2734 4.60847 17.2712C4.60334 17.2687 4.60209 17.2677 4.60419 17.2691L4.27137 17.7683C4.3228 17.8026 4.38082 17.8286 4.43301 17.8463C4.4827 17.8631 4.55146 17.8807 4.62369 17.8807V17.2807ZM4.595 17.2632C4.60544 17.2697 4.61258 17.2752 4.61609 17.2781C4.61984 17.2811 4.62192 17.2831 4.62222 17.2834C4.62258 17.2837 4.61985 17.2811 4.61384 17.2741C4.60175 17.2601 4.58458 17.238 4.56321 17.2078C4.5208 17.148 4.47125 17.0697 4.42557 16.9898L3.90462 17.2875C3.95809 17.381 4.01803 17.4763 4.07374 17.5549C4.10143 17.5939 4.13049 17.6323 4.15907 17.6655C4.18142 17.6915 4.22455 17.7398 4.28055 17.7742L4.595 17.2632ZM4.42705 16.9924C4.33377 16.8253 4.1725 16.4952 4.06701 16.2598L3.5195 16.5053C3.62885 16.7492 3.7981 17.0967 3.90313 17.2848L4.42705 16.9924ZM4.06875 16.2638C3.96725 16.0283 3.82563 15.6719 3.75855 15.4786L3.1917 15.6752C3.26509 15.8868 3.41268 16.2575 3.51776 16.5013L4.06875 16.2638ZM3.75855 15.4786C3.69211 15.2871 3.59538 14.9491 3.54307 14.7398L2.96098 14.8853C3.01609 15.1058 3.11767 15.4619 3.1917 15.6752L3.75855 15.4786ZM3.54171 14.7346C3.48725 14.5323 3.4148 14.1713 3.36911 13.9304L2.77962 14.0422C2.82483 14.2805 2.90111 14.6631 2.96234 14.8906L3.54171 14.7346ZM3.37029 13.9369C3.31688 13.6165 3.3 13.3366 3.3 12.4783H2.7C2.7 13.3386 2.71617 13.6619 2.77845 14.0356L3.37029 13.9369ZM3.3 12.4783C3.3 11.5555 3.31269 11.3635 3.38601 10.9622L2.79578 10.8544C2.7121 11.3124 2.7 11.5501 2.7 12.4783H3.3ZM3.38524 10.9662C3.43821 10.6973 3.53153 10.2801 3.59885 10.0386L3.02088 9.87748C2.94773 10.1399 2.851 10.5738 2.79655 10.8503L3.38524 10.9662ZM3.5976 10.0429C3.67162 9.79206 3.78863 9.42167 3.86668 9.21874L3.30667 9.00336C3.21946 9.23011 3.09684 9.61992 3.02213 9.87311L3.5976 10.0429ZM3.86846 9.21401C3.94115 9.01505 4.12116 8.61793 4.26325 8.33782L3.72815 8.0664C3.58103 8.35644 3.3892 8.77737 3.3049 9.00809L3.86846 9.21401ZM4.26325 8.33782C4.40446 8.05944 4.6263 7.66871 4.75093 7.47787L4.24857 7.14979C4.10878 7.36385 3.87615 7.77463 3.72815 8.0664L4.26325 8.33782ZM4.75093 7.47787C4.8768 7.28512 5.13115 6.93767 5.30829 6.71625L4.83977 6.34143C4.65334 6.57447 4.38711 6.93765 4.24857 7.14979L4.75093 7.47787ZM5.30829 6.71625C5.48027 6.50127 5.83471 6.11821 6.08418 5.8768L5.66692 5.44563C5.40408 5.7 5.03137 6.10193 4.83977 6.34143L5.30829 6.71625ZM6.08423 5.87674C6.34093 5.62819 6.68999 5.32003 6.85707 5.19472L6.49707 4.71472C6.30057 4.8621 5.93074 5.19019 5.66687 5.44569L6.08423 5.87674ZM6.8605 5.19211C7.03607 5.05644 7.32607 4.85112 7.49918 4.74096L7.17705 4.23476C6.98658 4.35597 6.68164 4.57206 6.49363 4.71734L6.8605 5.19211ZM7.50321 4.73835C7.67213 4.62701 8.04139 4.41788 8.32079 4.27615L8.04937 3.74105C7.75862 3.88853 7.36768 4.10908 7.17302 4.23737L7.50321 4.73835ZM8.31768 4.2777C8.59534 4.14089 9.04775 3.94315 9.32016 3.84445L9.11577 3.28034C8.81802 3.38822 8.34497 3.59537 8.05248 3.7395L8.31768 4.2777ZM9.32016 3.84445C9.59794 3.74381 10.0126 3.61524 10.2386 3.56068L10.0978 2.97743C9.84462 3.03855 9.40814 3.17441 9.11577 3.28034L9.32016 3.84445ZM10.2433 3.5595C10.4703 3.5008 10.8848 3.42013 11.1615 3.38003L11.0754 2.78624C10.782 2.82877 10.3454 2.91336 10.0931 2.97861L10.2433 3.5595ZM11.1656 3.37941C11.5068 3.32513 11.8815 3.30459 12.4428 3.3005L12.4384 2.70051C11.8676 2.70468 11.4573 2.72545 11.0713 2.78686L11.1656 3.37941ZM12.424 6.72968C12.4212 6.72968 12.4331 6.72995 12.4674 6.73164C12.4976 6.73313 12.539 6.73538 12.5885 6.73842C12.6877 6.74449 12.8182 6.7536 12.9554 6.7657L13.0082 6.16803C12.7266 6.14318 12.4632 6.12968 12.424 6.12968V6.72968ZM12.9598 6.76606C13.2232 6.78542 13.6325 6.85292 13.8575 6.90722L13.9983 6.32398C13.744 6.2626 13.3023 6.18962 13.0038 6.16767L12.9598 6.76606ZM13.8575 6.90722C14.0865 6.96249 14.4028 7.06174 14.5519 7.12138L14.7747 6.56429C14.5933 6.49172 14.2486 6.38439 13.9983 6.32398L13.8575 6.90722ZM14.5495 7.12039C14.7057 7.18449 14.9589 7.29712 15.1076 7.37145L15.3759 6.83479C15.2106 6.75213 14.9432 6.63339 14.7772 6.56528L14.5495 7.12039ZM15.1105 7.37289C15.245 7.43834 15.5251 7.60715 15.7228 7.74032L16.058 7.24265C15.8508 7.10314 15.5442 6.91664 15.373 6.83335L15.1105 7.37289ZM15.7228 7.74032C15.9145 7.86944 16.2188 8.10696 16.3816 8.26223L16.7956 7.82799C16.6032 7.64448 16.2711 7.38622 16.058 7.24265L15.7228 7.74032ZM16.3868 8.26709C16.5593 8.42387 16.7996 8.6766 16.9157 8.8226L17.3854 8.44925C17.2453 8.27299 16.9816 7.99688 16.7904 7.82313L16.3868 8.26709ZM16.9157 8.8226C17.0436 8.98349 17.1985 9.18655 17.2619 9.27974L17.758 8.94236C17.6809 8.82897 17.5136 8.61062 17.3854 8.44925L16.9157 8.8226ZM17.2619 9.27974C17.3223 9.36862 17.4644 9.61618 17.5805 9.83169L18.1088 9.54723C17.9934 9.33307 17.8381 9.06005 17.758 8.94236L17.2619 9.27974ZM17.5805 9.83169C17.6866 10.0288 17.8537 10.4216 17.9442 10.6933L18.5135 10.5035C18.414 10.2051 18.234 9.77978 18.1088 9.54723L17.5805 9.83169ZM17.943 10.6895C17.9877 10.8297 18.0321 10.976 18.0665 11.0988C18.1035 11.2306 18.1222 11.312 18.1252 11.3365L18.7209 11.265C18.7114 11.1862 18.6785 11.059 18.6442 10.9367C18.6074 10.8054 18.5609 10.6522 18.5147 10.5073L17.943 10.6895ZM18.1255 11.3389C18.1302 11.3758 18.1315 11.3946 18.1316 11.4047C18.1316 11.4129 18.1307 11.4057 18.1348 11.3915C18.1393 11.3759 18.1458 11.3659 18.1469 11.3643C18.1469 11.3642 18.1465 11.3648 18.1454 11.3662C18.1444 11.3675 18.1428 11.3694 18.1406 11.3721C18.1359 11.3775 18.1293 11.3848 18.1197 11.3948L18.5529 11.8099C18.6048 11.7557 18.6772 11.6759 18.7112 11.5581C18.7428 11.4491 18.7307 11.3418 18.7206 11.2626L18.1255 11.3389ZM18.1241 11.3902C18.1185 11.3958 18.1124 11.401 18.1062 11.4056C18.1 11.4101 18.0946 11.4133 18.0907 11.4153C18.0866 11.4174 18.0856 11.4174 18.088 11.4167C18.0902 11.4161 18.0989 11.4139 18.1132 11.4139V12.0139C18.2929 12.0139 18.4515 11.9114 18.5484 11.8145L18.1241 11.3902ZM18.1132 11.4139C18.1201 11.4139 18.1247 11.4144 18.1267 11.4147C18.1287 11.4149 18.1293 11.4151 18.1284 11.4149C18.1264 11.4144 18.1219 11.4132 18.116 11.4108C18.1101 11.4085 18.1055 11.4061 18.1028 11.4046C18.1016 11.4038 18.1014 11.4037 18.1023 11.4043C18.1031 11.4049 18.1056 11.4067 18.1093 11.4101L17.7039 11.8524C17.7638 11.9073 17.8351 11.9448 17.8945 11.9685C17.9529 11.9917 18.0312 12.0139 18.1132 12.0139V11.4139ZM18.1004 11.4023C18.1033 11.4048 18.1023 11.4043 18.0984 11.3996C18.0947 11.3952 18.0905 11.3893 18.0864 11.3827C18.0823 11.3761 18.0797 11.3708 18.0784 11.3678C18.0778 11.3664 18.0778 11.3664 18.0783 11.3677C18.0787 11.3688 18.0798 11.3724 18.0809 11.3783L17.4926 11.4959C17.5082 11.5742 17.5434 11.6454 17.5759 11.698C17.6094 11.7523 17.6557 11.812 17.7128 11.8603L18.1004 11.4023ZM18.0816 11.3818C18.0665 11.3012 18.0206 11.132 17.9899 11.0169L17.4101 11.1715C17.4455 11.3043 17.4822 11.4408 17.4919 11.4924L18.0816 11.3818ZM17.9899 11.0169C17.9525 10.8768 17.8568 10.6042 17.7819 10.4085L17.2215 10.6231C17.2953 10.8158 17.3814 11.0637 17.4101 11.1715L17.9899 11.0169ZM17.7819 10.4085C17.7036 10.2042 17.5733 9.9206 17.4849 9.76701L16.9649 10.0664C17.0335 10.1855 17.151 10.439 17.2215 10.6231L17.7819 10.4085ZM17.4849 9.76701C17.4025 9.62402 17.2544 9.38703 17.1522 9.23385L16.653 9.56667C16.7492 9.71095 16.8902 9.93669 16.9649 10.0664L17.4849 9.76701ZM17.1522 9.23385C17.0365 9.0602 16.743 8.72547 16.4992 8.48163L16.0749 8.9059C16.3103 9.14131 16.5705 9.44284 16.653 9.56667L17.1522 9.23385ZM16.4992 8.48163C16.2527 8.23516 15.8894 7.92196 15.6837 7.78636L15.3535 8.28734C15.5113 8.39137 15.8421 8.67311 16.0749 8.9059L16.4992 8.48163ZM15.6876 7.78898C15.4939 7.65696 15.1758 7.47209 14.9687 7.37076L14.705 7.90969C14.8863 7.99841 15.1796 8.16885 15.3496 8.28472L15.6876 7.78898ZM14.9687 7.37076C14.7636 7.27038 14.4339 7.13544 14.2201 7.07176L14.0489 7.64679C14.2234 7.6988 14.5217 7.82001 14.705 7.90969L14.9687 7.37076ZM14.2257 7.07348C14.0239 7.00906 13.7075 6.92338 13.5129 6.88357L13.3927 7.4714C13.5616 7.50596 13.8568 7.58555 14.0433 7.64507L14.2257 7.07348ZM13.5084 6.88269C13.2631 6.8364 12.9156 6.81138 12.4819 6.81138V7.41138C12.8993 7.41138 13.2046 7.43595 13.3972 7.47229L13.5084 6.88269ZM12.4819 6.81138C11.9494 6.81138 11.7229 6.82854 11.3422 6.91364L11.4731 7.49918C11.7948 7.42728 11.9732 7.41138 12.4819 7.41138V6.81138ZM11.3469 6.91263C11.0978 6.96416 10.7805 7.04967 10.6311 7.09946L10.8208 7.66867C10.9441 7.62757 11.2383 7.54782 11.4685 7.50019L11.3469 6.91263ZM10.6311 7.09946C10.4745 7.15167 10.1785 7.2831 9.9699 7.38952L10.2426 7.92398C10.4389 7.82382 10.7048 7.70736 10.8208 7.66867L10.6311 7.09946ZM9.97428 7.38733C9.76158 7.49151 9.45238 7.66737 9.27879 7.7831L9.61161 8.28233C9.76027 8.18322 10.046 8.0203 10.2382 7.92617L9.97428 7.38733ZM9.2833 7.78015C9.09815 7.89884 8.78028 8.16625 8.55969 8.37836L8.97556 8.81086C9.18465 8.60981 9.46999 8.37317 9.6071 8.28528L9.2833 7.78015ZM8.55978 8.37828C8.34375 8.58584 8.05609 8.8979 7.92486 9.08069L8.41225 9.43061C8.51238 9.29114 8.77009 9.00827 8.97547 8.81094L8.55978 8.37828ZM7.92781 9.07664C7.80382 9.24339 7.62234 9.51061 7.52303 9.68667L8.04561 9.98146C8.12809 9.83526 8.29366 9.59017 8.40929 9.43466L7.92781 9.07664ZM7.52303 9.68667C7.42599 9.8587 7.27494 10.1692 7.19062 10.3867L7.75003 10.6036C7.8227 10.4162 7.96087 10.1317 8.04561 9.98146L7.52303 9.68667ZM7.19257 10.3817C7.10541 10.5953 7.0056 10.8981 6.96444 11.0627L7.54653 11.2083C7.57974 11.0754 7.66997 10.7998 7.74808 10.6085L7.19257 10.3817ZM6.96444 11.0627C6.92676 11.2135 6.8846 11.3646 6.86967 11.4064L7.43472 11.6082C7.46111 11.5344 7.50984 11.355 7.54653 11.2083L6.96444 11.0627ZM6.86967 11.4064C6.8723 11.3991 6.87473 11.394 6.87613 11.3914C6.87757 11.3886 6.8785 11.3872 6.87859 11.387C6.87861 11.387 6.87708 11.3892 6.87386 11.3927C6.8707 11.3961 6.86774 11.3987 6.86592 11.4002C6.86512 11.4008 6.86511 11.4007 6.86602 11.4002C6.86687 11.3996 6.86932 11.3981 6.87343 11.396L7.14176 11.9327C7.21117 11.898 7.27015 11.8478 7.31382 11.8007C7.35633 11.7548 7.40603 11.6886 7.43472 11.6082L6.86967 11.4064ZM6.88942 11.3886C6.87313 11.3956 6.85076 11.4035 6.82992 11.4093C6.81978 11.4121 6.81254 11.4137 6.80854 11.4144C6.80302 11.4154 6.80854 11.4139 6.82167 11.4139V12.0139C6.88613 12.0139 6.94991 11.9987 6.99005 11.9875C7.03635 11.9747 7.08421 11.9579 7.12577 11.9401L6.88942 11.3886ZM6.82167 11.4139C6.8423 11.4139 6.85773 11.4166 6.86611 11.4184C6.87495 11.4203 6.88075 11.4223 6.88311 11.4232C6.88744 11.4247 6.88626 11.4247 6.88003 11.4211C6.87434 11.4179 6.86706 11.4131 6.85927 11.4072C6.85148 11.4013 6.84476 11.3954 6.83962 11.3902L6.41536 11.8145C6.4658 11.8649 6.52431 11.9088 6.58152 11.9416C6.62558 11.9669 6.71638 12.0139 6.82167 12.0139V11.4139ZM6.84827 11.3992C6.82674 11.3759 6.81965 11.3665 6.81765 11.3636C6.81728 11.3631 6.81899 11.3655 6.82142 11.3704C6.82397 11.3755 6.82657 11.3819 6.82865 11.389C6.83296 11.4037 6.83212 11.4116 6.83219 11.4041C6.83228 11.3945 6.83353 11.3761 6.83829 11.3389L6.24316 11.2626C6.2331 11.3411 6.22083 11.4483 6.25281 11.5575C6.28659 11.673 6.35817 11.7527 6.40671 11.8055L6.84827 11.3992ZM6.83696 11.3482C6.84957 11.2694 6.92187 10.9903 7.00712 10.7346L6.43791 10.5448C6.34964 10.8097 6.26494 11.1256 6.2445 11.2534L6.83696 11.3482ZM7.00845 10.7305C7.08594 10.4864 7.24882 10.0931 7.36495 9.86861L6.83202 9.59295C6.70026 9.8477 6.52435 10.2725 6.43658 10.5489L7.00845 10.7305ZM7.36681 9.86494C7.47677 9.64502 7.71468 9.27114 7.8827 9.03911L7.39673 8.6872C7.21771 8.93443 6.95983 9.33728 6.83016 9.59662L7.36681 9.86494ZM7.88071 9.04182C8.04683 8.81776 8.34865 8.48399 8.53915 8.30515L8.12848 7.86771C7.91409 8.06897 7.58792 8.42929 7.39872 8.68449L7.88071 9.04182ZM8.53915 8.30515C8.73373 8.12248 9.0424 7.87006 9.21788 7.75431L8.88752 7.25345C8.67464 7.39386 8.3388 7.67027 8.12848 7.86771L8.53915 8.30515ZM9.22154 7.75186C9.40831 7.6247 9.70958 7.44285 9.88693 7.35606L9.6232 6.81713C9.41218 6.9204 9.08546 7.11865 8.88387 7.2559L9.22154 7.75186ZM9.8915 7.35378C10.0702 7.26255 10.3984 7.12784 10.6127 7.05772L10.4261 6.48748C10.1859 6.56609 9.82834 6.71233 9.61863 6.81941L9.8915 7.35378ZM10.6174 7.05616C10.833 6.98167 11.155 6.89434 11.3232 6.85994L11.203 6.27211C11.0076 6.31207 10.6603 6.40653 10.4214 6.48904L10.6174 7.05616ZM11.3232 6.85994C11.4918 6.82544 11.8058 6.78162 12.0091 6.76598L11.9631 6.16775C11.7367 6.18516 11.3979 6.23223 11.203 6.27211L11.3232 6.85994ZM12.0091 6.76598C12.212 6.75037 12.4314 6.7326 12.4734 6.7256L12.3747 6.13376C12.3817 6.1326 12.3776 6.13338 12.3473 6.13622C12.3232 6.13849 12.2905 6.14136 12.2511 6.14469C12.1725 6.15132 12.07 6.15952 11.9631 6.16775L12.0091 6.76598ZM20.3732 7.71608C20.3579 7.71736 20.3461 7.71669 20.3389 7.71598C20.3315 7.71526 20.3266 7.71423 20.3243 7.71373C20.322 7.71319 20.3211 7.71288 20.3219 7.71312C20.3226 7.71335 20.3242 7.71391 20.3267 7.71492C20.3318 7.71703 20.3385 7.72018 20.3458 7.72425C20.3531 7.7283 20.3594 7.73233 20.364 7.73561L20.7127 7.24737C20.6655 7.21364 20.6101 7.18261 20.5538 7.1596C20.5069 7.14038 20.4202 7.11009 20.3234 7.11815L20.3732 7.71608ZM20.353 7.72738C20.3299 7.70917 20.3291 7.70127 20.3572 7.74038C20.378 7.7691 20.4051 7.81011 20.4369 7.86176C20.5004 7.96458 20.5759 8.09875 20.6468 8.23862L21.1819 7.96728C21.1041 7.81382 21.0205 7.66498 20.9476 7.54677C20.9113 7.48789 20.8759 7.43387 20.844 7.38952C20.8195 7.35555 20.7758 7.29653 20.7237 7.25559L20.353 7.72738ZM20.6483 8.2416C20.7982 8.52924 20.9869 8.9356 21.064 9.13611L21.624 8.92072C21.5359 8.69155 21.3362 8.26334 21.1804 7.96431L20.6483 8.2416ZM21.0659 9.14076C21.1484 9.34509 21.2691 9.69902 21.3328 9.91787L21.9089 9.75027C21.8404 9.51465 21.7132 9.14143 21.6222 8.91608L21.0659 9.14076ZM21.3328 9.91787C21.3961 10.1356 21.4811 10.4914 21.5256 10.7018L22.1127 10.5776C22.0663 10.3583 21.9778 9.98699 21.9089 9.75027L21.3328 9.91787ZM21.5246 10.6964C21.5645 10.9043 21.621 11.2674 21.6447 11.4969L22.2415 11.4352C22.2157 11.1853 22.1564 10.8048 22.1138 10.5831L21.5246 10.6964ZM21.6452 11.5011C21.6757 11.7603 21.6885 12.2101 21.6721 12.7795L22.2719 12.7967C22.2886 12.2175 22.2766 11.7336 22.241 11.431L21.6452 11.5011ZM21.6721 12.7802C21.6557 13.4062 21.627 13.774 21.574 14.0544L22.1635 14.166C22.2261 13.8349 22.2553 13.4261 22.2719 12.796L21.6721 12.7802ZM21.574 14.0543C21.5292 14.2907 21.4565 14.6248 21.4099 14.7956L21.9888 14.9535C22.0414 14.7607 22.1174 14.409 22.1635 14.1661L21.574 14.0543ZM21.4083 14.8018C21.3654 14.9733 21.2648 15.3077 21.1844 15.5411L21.7516 15.7367C21.8364 15.4908 21.9424 15.1394 21.9904 14.9473L21.4083 14.8018ZM21.1844 15.5411C21.107 15.7654 20.9102 16.2282 20.7452 16.5583L21.2818 16.8266C21.4556 16.4791 21.6637 15.9916 21.7516 15.7367L21.1844 15.5411ZM20.7433 16.5622C20.5824 16.8959 20.3291 17.3455 20.1862 17.5579L20.684 17.8928C20.8469 17.6507 21.1141 17.1748 21.2838 16.8227L20.7433 16.5622ZM20.1841 17.561C20.0409 17.7798 19.7875 18.1255 19.6266 18.3178L20.0868 18.7028C20.2647 18.4902 20.5319 18.1253 20.6861 17.8896L20.1841 17.561ZM19.6243 18.3206C19.4674 18.5128 19.1367 18.8719 18.8962 19.1044L19.3132 19.5358C19.5685 19.289 19.9155 18.9127 20.0891 18.7L19.6243 18.3206ZM18.8944 19.1061C18.6565 19.34 18.3065 19.6493 18.1249 19.7884L18.4898 20.2647C18.6966 20.1063 19.0655 19.7794 19.315 19.534L18.8944 19.1061ZM18.1249 19.7884C17.9364 19.9328 17.6281 20.1519 17.4398 20.2761L17.7702 20.7769C17.9702 20.645 18.29 20.4178 18.4898 20.2647L18.1249 19.7884ZM17.4436 20.2736C17.2588 20.3916 16.9244 20.581 16.7045 20.6929L16.9768 21.2276C17.2113 21.1082 17.5629 20.9093 17.7664 20.7794L17.4436 20.2736ZM16.7084 20.691C16.4813 20.8025 16.1829 20.9434 16.0436 21.0015L16.2743 21.5554C16.4325 21.4895 16.7456 21.3412 16.9729 21.2296L16.7084 20.691ZM16.0436 21.0015C15.9004 21.0612 15.6572 21.1544 15.4998 21.2109L15.7025 21.7756C15.8674 21.7165 16.1201 21.6196 16.2743 21.5554L16.0436 21.0015ZM15.5063 21.2087C15.3501 21.2607 15.0587 21.3497 14.8632 21.4016L15.0171 21.9815C15.2265 21.926 15.53 21.8332 15.6961 21.7779L15.5063 21.2087ZM14.8632 21.4016C14.6686 21.4532 14.2914 21.5385 14.037 21.5869L14.1493 22.1763C14.4155 22.1256 14.8068 22.0373 15.0171 21.9815L14.8632 21.4016ZM14.0389 21.5866C13.7024 21.6485 13.3818 21.6769 12.7019 21.6933L12.7163 22.2931C13.4081 22.2764 13.7651 22.247 14.1474 22.1767L14.0389 21.5866ZM12.7023 21.6933C11.9861 21.7096 11.7149 21.697 11.3451 21.6464L11.2637 22.2408C11.6789 22.2976 11.9861 22.3098 12.716 22.2931L12.7023 21.6933ZM11.3493 21.647C11.0803 21.6062 10.6856 21.537 10.4782 21.4931L10.354 22.0801C10.5763 22.1271 10.9831 22.1984 11.2594 22.2402L11.3493 21.647ZM10.4782 21.4931C10.2782 21.4508 9.8516 21.3305 9.53784 21.2286L9.35256 21.7993C9.67505 21.904 10.1243 22.0315 10.354 22.0801L10.4782 21.4931ZM9.53784 21.2286C9.23536 21.1304 8.72038 20.9173 8.40187 20.7581L8.13355 21.2947C8.47608 21.466 9.01878 21.6909 9.35256 21.7993L9.53784 21.2286ZM8.40187 20.7581C8.07634 20.5953 7.66903 20.3691 7.49918 20.261L7.17705 20.7672C7.37078 20.8905 7.79803 21.127 8.13355 21.2947L8.40187 20.7581ZM7.50321 20.2636C7.32668 20.1473 7.03802 19.944 6.86443 19.8148L6.50623 20.2962C6.68796 20.4314 6.98598 20.6413 7.17302 20.7646L7.50321 20.2636ZM6.87068 19.8196C6.7807 19.7489 6.69544 19.6852 6.62989 19.6384C6.59745 19.6152 6.56775 19.5947 6.54371 19.5791C6.53222 19.5716 6.51836 19.5629 6.50443 19.555C6.49792 19.5514 6.48644 19.5451 6.47245 19.5389C6.46555 19.5358 6.45354 19.5307 6.4383 19.5259C6.42785 19.5226 6.39277 19.5117 6.34655 19.5117V20.1117C6.3011 20.1117 6.26706 20.101 6.25793 20.0982C6.24401 20.0938 6.23358 20.0893 6.22852 20.0871C6.21822 20.0825 6.21146 20.0786 6.21066 20.0782C6.20814 20.0768 6.20961 20.0775 6.2169 20.0822C6.23044 20.091 6.25212 20.1059 6.28114 20.1266C6.3385 20.1676 6.41644 20.2257 6.49999 20.2914L6.87068 19.8196ZM6.34655 19.5117C6.24516 19.5117 6.17471 19.5608 6.13922 19.5944C6.10526 19.6265 6.0867 19.659 6.07845 19.6748C6.06153 19.7071 6.05401 19.7358 6.05143 19.7459C6.04506 19.7709 6.0419 19.7947 6.04023 19.8086C6.03642 19.8403 6.03383 19.879 6.03192 19.9186C6.02799 20 6.02589 20.1084 6.02589 20.2249H6.62589C6.62589 20.1141 6.62792 20.016 6.63122 19.9476C6.63292 19.9123 6.63472 19.8903 6.63595 19.8801C6.6368 19.873 6.63632 19.8805 6.63276 19.8944C6.6316 19.899 6.62553 19.9234 6.61009 19.9529C6.60258 19.9673 6.58477 19.9988 6.55158 20.0302C6.51684 20.0631 6.44715 20.1117 6.34655 20.1117V19.5117ZM6.02589 20.2249C6.02589 20.3504 6.02094 20.4524 6.01268 20.528C6.00856 20.5658 6.00398 20.5934 5.99985 20.6121C5.99511 20.6336 5.99329 20.6324 5.99972 20.6196L6.53637 20.8879C6.58095 20.7987 6.59907 20.6854 6.60914 20.5931C6.62051 20.489 6.62589 20.3638 6.62589 20.2249H6.02589ZM5.99619 20.6269C5.99683 20.6255 5.99617 20.6271 5.99343 20.6312C5.9908 20.635 5.98748 20.6393 5.98396 20.6433C5.98227 20.6453 5.98078 20.6468 5.9796 20.648C5.9784 20.6492 5.9778 20.6497 5.97791 20.6496C5.97795 20.6496 5.97931 20.6484 5.98206 20.6464C5.98461 20.6445 5.99011 20.6407 5.99841 20.6361L6.28979 21.1606C6.35065 21.1268 6.40067 21.078 6.43439 21.0397C6.47121 20.9979 6.51066 20.9433 6.5399 20.8806L5.99619 20.6269ZM6.02226 20.6242C6.03371 20.6191 6.03928 20.6181 6.03492 20.6192C6.03193 20.6199 6.02588 20.6213 6.01702 20.6227C5.99862 20.6256 5.97824 20.6272 5.96231 20.6272V21.2272C6.01249 21.2272 6.06441 21.2227 6.11108 21.2153C6.15246 21.2087 6.2117 21.1966 6.26594 21.1725L6.02226 20.6242ZM5.96231 20.6272C5.97098 20.6272 5.97729 20.6279 5.98086 20.6285C5.98453 20.629 5.98663 20.6295 5.98713 20.6297C5.98782 20.6298 5.98546 20.6292 5.98092 20.6272C5.97652 20.6251 5.9723 20.6227 5.96902 20.6205C5.96554 20.6182 5.96544 20.6177 5.96787 20.6201L5.5436 21.0444C5.60032 21.1011 5.66789 21.1437 5.73093 21.1726C5.79101 21.2001 5.87326 21.2272 5.96231 21.2272V20.6272ZM5.96787 20.6201C5.94609 20.5983 5.9637 20.6128 5.97501 20.6373C5.98328 20.6553 5.97825 20.6567 5.97337 20.6041C5.96321 20.4946 5.96273 20.2848 5.96484 19.8255L5.36485 19.8227C5.36282 20.2641 5.36234 20.5129 5.37594 20.6595C5.38294 20.735 5.39572 20.814 5.4302 20.8887C5.46772 20.97 5.51994 21.0207 5.5436 21.0444L5.96787 20.6201ZM5.96484 19.8241C5.96484 19.5721 5.96792 19.3375 5.97298 19.1625C5.97552 19.0746 5.9785 19.0039 5.98166 18.9543C5.98327 18.9291 5.98473 18.9126 5.9858 18.9033C5.98636 18.8985 5.98643 18.899 5.98572 18.9028C5.98535 18.9048 5.98435 18.91 5.98246 18.9173C5.98098 18.9229 5.97669 18.9388 5.96791 18.9585L5.41962 18.7148C5.40309 18.752 5.39711 18.7862 5.39571 18.7938C5.393 18.8085 5.39112 18.8228 5.38975 18.8346C5.38698 18.8586 5.38476 18.8866 5.38288 18.9161C5.37907 18.9757 5.37585 19.0543 5.37323 19.1451C5.36796 19.3274 5.36484 19.568 5.36484 19.8241H5.96484ZM5.95601 18.9824C5.9514 18.9907 5.94756 18.9962 5.94569 18.9987C5.94369 19.0015 5.94249 19.0028 5.94246 19.0029C5.94236 19.003 5.94289 19.0024 5.94409 19.0012C5.94527 19 5.94684 18.9985 5.94876 18.9968C5.95277 18.9933 5.95706 18.99 5.96093 18.9874C5.96498 18.9846 5.96659 18.984 5.96523 18.9846L5.7115 18.4409C5.64884 18.4701 5.59423 18.5096 5.55238 18.5464C5.51407 18.5801 5.46532 18.6301 5.43152 18.691L5.95601 18.9824ZM5.97757 18.9785C5.95205 18.9919 5.94194 18.9881 5.98896 18.9821C6.03367 18.9764 6.10876 18.9709 6.2378 18.9666C6.4942 18.958 6.93002 18.9549 7.6893 18.9549V18.3549C6.93229 18.3549 6.48603 18.358 6.21773 18.3669C6.08442 18.3714 5.98649 18.3776 5.91294 18.3869C5.8417 18.396 5.76806 18.4109 5.69916 18.447L5.97757 18.9785ZM7.47716 18.867L7.60111 18.991L8.02537 18.5667L7.90143 18.4428L7.47716 18.867ZM7.60111 18.991C7.60746 18.9973 7.6145 19.0054 7.62141 19.0147C7.62831 19.024 7.63396 19.033 7.63806 19.0405C7.64238 19.0485 7.64344 19.052 7.6429 19.0503C7.64256 19.0493 7.64133 19.0455 7.6401 19.039C7.63891 19.0328 7.63719 19.0215 7.63719 19.0061H8.23719C8.23719 18.902 8.1954 18.8095 8.16505 18.7537C8.1297 18.6887 8.08168 18.623 8.02537 18.5667L7.60111 18.991ZM7.63719 19.0061C7.63719 18.994 7.63833 18.9851 7.6392 18.9799C7.6401 18.9745 7.64102 18.9712 7.64137 18.97C7.64197 18.9679 7.64154 18.9699 7.63891 18.9752C7.63641 18.9802 7.63308 18.9858 7.62935 18.9911C7.62554 18.9965 7.62269 18.9996 7.62177 19.0005L8.04603 19.4248C8.10049 19.3703 8.14439 19.3059 8.17556 19.2435C8.20388 19.1869 8.23719 19.1013 8.23719 19.0061H7.63719ZM7.61711 19.0053C7.59782 19.0255 7.59852 19.0223 7.60768 19.0165C7.62143 19.0076 7.6322 19.0055 7.62835 19.0063C7.61949 19.0082 7.59709 19.0114 7.54596 19.0134C7.49604 19.0154 7.43025 19.0159 7.33811 19.0159V19.6159C7.50942 19.6159 7.64716 19.6154 7.75127 19.5936C7.81404 19.5804 7.87413 19.5584 7.93191 19.5213C7.9851 19.4872 8.02453 19.4474 8.05069 19.42L7.61711 19.0053ZM7.33811 19.0159C7.22248 19.0159 7.11204 19.0203 7.02504 19.0287C6.98285 19.0328 6.93778 19.0387 6.89761 19.0478C6.87856 19.0521 6.84962 19.0595 6.81903 19.0727C6.80366 19.0793 6.77988 19.0906 6.7543 19.109C6.73089 19.1258 6.68739 19.1616 6.65663 19.2231L7.19329 19.4914C7.16408 19.5498 7.12345 19.5826 7.10417 19.5964C7.08272 19.6118 7.06434 19.6203 7.05555 19.6241C7.03813 19.6315 7.02713 19.6336 7.03029 19.6329C7.03454 19.632 7.05092 19.629 7.0831 19.6259C7.14484 19.6199 7.23478 19.6159 7.33811 19.6159V19.0159ZM6.66771 19.2029C6.6164 19.2884 6.62155 19.3716 6.62867 19.4131C6.63599 19.4557 6.65066 19.488 6.65912 19.5048C6.67644 19.5391 6.69724 19.566 6.70918 19.5806C6.73568 19.6132 6.76857 19.6461 6.79972 19.6751C6.86451 19.7357 6.95204 19.8079 7.04746 19.8789L7.40567 19.3975C7.32343 19.3363 7.25396 19.2784 7.20926 19.2367C7.19837 19.2265 7.18984 19.2181 7.18349 19.2116C7.17682 19.2047 7.1743 19.2016 7.17457 19.2019C7.17479 19.2022 7.17678 19.2046 7.17977 19.209C7.18243 19.2128 7.18841 19.2218 7.19503 19.2349C7.2006 19.246 7.21344 19.2732 7.22003 19.3116C7.22643 19.3489 7.23197 19.4287 7.18221 19.5116L6.66771 19.2029ZM7.04841 19.8796C7.22937 20.0131 7.53794 20.2202 7.73834 20.3439L8.0534 19.8332C7.86544 19.7173 7.57081 19.5194 7.40472 19.3968L7.04841 19.8796ZM7.74233 20.3463C7.94116 20.4647 8.21511 20.6165 8.35756 20.6899L8.63233 20.1565C8.5021 20.0894 8.23895 19.9437 8.04941 19.8308L7.74233 20.3463ZM8.36406 20.6931C8.50716 20.7625 8.7648 20.8765 8.9378 20.9482L9.16761 20.394C9.00182 20.3252 8.75542 20.2161 8.62583 20.1533L8.36406 20.6931ZM8.94364 20.9506C9.10519 21.0136 9.33033 21.1044 9.42531 21.1389L9.63035 20.5751C9.54354 20.5435 9.33901 20.4608 9.16177 20.3916L8.94364 20.9506ZM9.42531 21.1389C9.52743 21.1761 9.78072 21.2531 9.98251 21.3107L10.1473 20.7338C9.94424 20.6758 9.71002 20.604 9.63035 20.5751L9.42531 21.1389ZM9.98251 21.3107C10.1946 21.3713 10.5867 21.4639 10.8513 21.5185L10.9725 20.9309C10.7166 20.8781 10.3402 20.7889 10.1473 20.7338L9.98251 21.3107ZM10.8525 21.5188C11.3152 21.6122 11.4954 21.6197 12.5244 21.6156L12.522 21.0156C11.4935 21.0197 11.368 21.0108 10.9713 20.9307L10.8525 21.5188ZM12.5232 21.6156C13.5884 21.6156 13.7224 21.6077 14.2385 21.4974L14.1131 20.9107C13.6624 21.007 13.5816 21.0156 12.5232 21.0156V21.6156ZM14.2355 21.4981C14.5352 21.4372 15.0384 21.2974 15.3633 21.1919L15.178 20.6213C14.8666 20.7223 14.3865 20.8552 14.1162 20.91L14.2355 21.4981ZM15.3633 21.1919C15.6961 21.0839 16.2223 20.8674 16.541 20.7081L16.2727 20.1714C15.9799 20.3178 15.4815 20.5227 15.178 20.6213L15.3633 21.1919ZM16.541 20.7081C16.852 20.5526 17.2863 20.3105 17.504 20.1639L17.1689 19.6662C16.9817 19.7922 16.5731 20.0212 16.2727 20.1714L16.541 20.7081ZM17.504 20.1639C17.7123 20.0236 18.0665 19.7664 18.2893 19.5865L17.9123 19.1197C17.7054 19.2869 17.3655 19.5338 17.1689 19.6662L17.504 20.1639ZM18.2893 19.5865C18.5133 19.4056 18.8583 19.0906 19.059 18.8768L18.6216 18.4661C18.4422 18.6571 18.118 18.9536 17.9123 19.1197L18.2893 19.5865ZM19.059 18.8768C19.2493 18.6741 19.514 18.3801 19.639 18.2194L19.1654 17.851C19.0591 17.9877 18.8114 18.2639 18.6216 18.4661L19.059 18.8768ZM19.6358 18.2234C19.7635 18.0649 19.988 17.751 20.1428 17.5209L19.6449 17.186C19.494 17.4104 19.2805 17.708 19.1686 17.847L19.6358 18.2234ZM20.1428 17.5209C20.3047 17.2802 20.5429 16.8586 20.6802 16.5754L20.1404 16.3136C20.0132 16.5758 19.7887 16.9723 19.6449 17.186L20.1428 17.5209ZM20.6786 16.5787C20.8196 16.2968 20.9969 15.8872 21.0828 15.6639L20.5228 15.4486C20.4434 15.655 20.2737 16.0469 20.142 16.3104L20.6786 16.5787ZM21.0846 15.6592C21.1661 15.4362 21.2809 15.0707 21.3376 14.844L20.7555 14.6985C20.7048 14.9015 20.5965 15.2466 20.521 15.4533L21.0846 15.6592ZM21.3362 14.8492C21.3965 14.6254 21.4766 14.2626 21.5188 14.0429L20.9296 13.9296C20.8892 14.1396 20.8123 14.4874 20.7569 14.6933L21.3362 14.8492ZM21.5185 14.0444C21.5869 13.6979 21.6027 13.3813 21.6027 12.5196H21.0027C21.0027 13.3848 20.9855 13.6466 20.9299 13.9282L21.5185 14.0444ZM21.6027 12.5196C21.6027 11.8091 21.5872 11.3209 21.5443 11.0824L20.9537 11.1886C20.9852 11.3633 21.0027 11.7922 21.0027 12.5196H21.6027ZM21.5434 11.078C21.5093 10.9031 21.4298 10.5435 21.3673 10.281L20.7836 10.42C20.8451 10.6781 20.9226 11.0291 20.9546 11.193L21.5434 11.078ZM21.3662 10.2767C21.2987 10.0106 21.1801 9.60757 21.097 9.37993L20.5334 9.58585C20.6072 9.78788 20.7201 10.1699 20.7847 10.4244L21.3662 10.2767ZM21.097 9.37993C21.0162 9.15885 20.8766 8.81584 20.7812 8.61203L20.2377 8.86639C20.3241 9.05095 20.4572 9.37724 20.5334 9.58585L21.097 9.37993ZM20.7812 8.61203C20.6878 8.41251 20.5429 8.13088 20.454 7.97977L19.9369 8.28398C20.0133 8.41381 20.1494 8.67755 20.2377 8.86639L20.7812 8.61203ZM20.4533 7.97855C20.4163 7.91627 20.3854 7.8518 20.3642 7.79692C20.3536 7.76959 20.3464 7.74705 20.342 7.73031C20.337 7.7116 20.3377 7.70802 20.3381 7.71613L19.7388 7.7461C19.7433 7.83624 19.774 7.93428 19.8046 8.0134C19.8381 8.10002 19.8837 8.19462 19.9376 8.2852L20.4533 7.97855ZM20.3383 7.72001C20.3376 7.70299 20.3386 7.69874 20.3381 7.70178C20.3378 7.70373 20.3371 7.70792 20.3354 7.71367C20.3336 7.71955 20.3311 7.72615 20.3277 7.73301C20.3206 7.74755 20.3129 7.75644 20.3102 7.75922C20.3087 7.76082 20.312 7.75699 20.3265 7.7465L19.9736 7.26126C19.9131 7.30526 19.8382 7.36891 19.7895 7.4679C19.7404 7.5676 19.7358 7.66613 19.7387 7.74222L20.3383 7.72001ZM20.3374 7.73814C20.3408 7.73541 20.3462 7.73159 20.3533 7.7274C20.3603 7.72325 20.3673 7.7197 20.3734 7.71703C20.3799 7.71423 20.3829 7.71344 20.382 7.71369C20.3814 7.71385 20.3786 7.71458 20.3737 7.71532C20.3691 7.71603 20.3604 7.71712 20.3483 7.71712V7.11712C20.2632 7.11712 20.1847 7.14482 20.1342 7.16679C20.0769 7.19171 20.0164 7.22659 19.9626 7.26962L20.3374 7.73814ZM6.82167 13.5839C6.81418 13.5839 6.80931 13.5834 6.80776 13.5832C6.806 13.5831 6.8058 13.583 6.80732 13.5832C6.81057 13.5838 6.81692 13.5853 6.82582 13.5879C6.84469 13.5934 6.86274 13.6006 6.87343 13.6059L7.14176 13.0693C7.0946 13.0457 7.04242 13.0261 6.99415 13.012C6.95107 12.9994 6.88687 12.9839 6.82167 12.9839V13.5839ZM6.88942 13.6134C6.87572 13.6075 6.86885 13.6022 6.86812 13.6016C6.86688 13.6006 6.86771 13.6012 6.8696 13.6032C6.87147 13.6053 6.87248 13.6068 6.87248 13.6068C6.8724 13.6067 6.8717 13.6056 6.8706 13.6034C6.86953 13.6013 6.86765 13.5973 6.86554 13.5914L7.43059 13.3896C7.40351 13.3138 7.35788 13.2485 7.31394 13.2001C7.27051 13.1522 7.20679 13.0966 7.12577 13.0619L6.88942 13.6134ZM6.86554 13.5914C6.88217 13.6379 6.94381 13.8533 7.01287 14.0907L7.58899 13.9231C7.52585 13.7061 7.45527 13.4587 7.43059 13.3896L6.86554 13.5914ZM7.01287 14.0907C7.08443 14.3367 7.24814 14.7537 7.38293 15.0277L7.92129 14.7627C7.79993 14.5161 7.64964 14.1316 7.58899 13.9231L7.01287 14.0907ZM7.38293 15.0277C7.5163 15.2987 7.73654 15.6718 7.87968 15.8611L8.35827 15.4993C8.24526 15.3498 8.04408 15.0123 7.92129 14.7627L7.38293 15.0277ZM7.87968 15.8611C8.01702 16.0428 8.28247 16.3465 8.48113 16.5451L8.90539 16.1208C8.72394 15.9394 8.47709 15.6564 8.35827 15.4993L7.87968 15.8611ZM8.48113 16.5451C8.67456 16.7385 8.98104 17.0071 9.16867 17.1398L9.51515 16.6499C9.364 16.543 9.08379 16.2992 8.90539 16.1208L8.48113 16.5451ZM9.16476 17.137C9.3496 17.2722 9.67368 17.4663 9.88727 17.5752L10.16 17.0408C9.96866 16.9432 9.67301 16.7654 9.51906 16.6528L9.16476 17.137ZM9.883 17.573C10.1038 17.6902 10.485 17.8458 10.7403 17.9251L10.9182 17.352C10.6943 17.2825 10.3483 17.1407 10.1642 17.043L9.883 17.573ZM10.7359 17.9236C10.9846 18.0051 11.3341 18.0963 11.5225 18.1284L11.6234 17.537C11.473 17.5113 11.1532 17.429 10.9227 17.3534L10.7359 17.9236ZM11.5181 18.1277C11.7253 18.1662 12.1503 18.1864 12.5025 18.1864V17.5864C12.1524 17.5864 11.7759 17.5653 11.6278 17.5378L11.5181 18.1277ZM12.5025 18.1864C12.9189 18.1864 13.2744 18.1569 13.5313 18.1064L13.4156 17.5177C13.2098 17.5581 12.8959 17.5864 12.5025 17.5864V18.1864ZM13.5299 18.1067C13.7362 18.0672 14.0535 17.9857 14.2461 17.9244L14.0642 17.3527C13.8932 17.4071 13.599 17.4826 13.417 17.5174L13.5299 18.1067ZM14.2461 17.9244C14.4467 17.8606 14.7957 17.7135 15.031 17.598L14.7666 17.0594C14.5474 17.167 14.2272 17.3008 14.0642 17.3527L14.2461 17.9244ZM15.0349 17.596C15.2686 17.477 15.5897 17.2914 15.7562 17.1711L15.4049 16.6847C15.2739 16.7793 14.9835 16.9489 14.7627 17.0613L15.0349 17.596ZM15.7517 17.1743C15.9187 17.0583 16.1958 16.8191 16.38 16.6475L15.971 16.2085C15.7915 16.3757 15.5399 16.5909 15.4094 16.6815L15.7517 17.1743ZM16.3851 16.6426C16.5666 16.4653 16.8215 16.1941 16.9494 16.0296L16.4758 15.6613C16.3723 15.7943 16.1397 16.0436 15.9659 16.2134L16.3851 16.6426ZM16.9462 16.0337C17.0735 15.8756 17.2505 15.6254 17.3487 15.4648L16.8367 15.1519C16.753 15.2888 16.5912 15.5179 16.4789 15.6573L16.9462 16.0337ZM17.3487 15.4648C17.4429 15.3105 17.5778 15.0677 17.6467 14.9161L17.1005 14.6678C17.0455 14.7888 16.9242 15.0087 16.8367 15.1519L17.3487 15.4648ZM17.6436 14.9228C17.7167 14.772 17.8244 14.4995 17.8889 14.3103L17.321 14.1167C17.2616 14.2911 17.1628 14.5392 17.1037 14.661L17.6436 14.9228ZM17.8889 14.3103C17.9545 14.1181 18.0276 13.8516 18.0587 13.7136L17.4735 13.5814C17.4468 13.6995 17.3794 13.9454 17.321 14.1167L17.8889 14.3103ZM18.0612 13.7017C18.0698 13.6545 18.0766 13.6246 18.0823 13.6046C18.0879 13.5849 18.0902 13.5833 18.0865 13.5897C18.0812 13.599 18.0728 13.6092 18.0637 13.6168C18.0575 13.6221 18.0569 13.6209 18.0739 13.612L17.7971 13.0797C17.7218 13.1189 17.6311 13.1773 17.5656 13.2921C17.5124 13.385 17.4893 13.4942 17.4711 13.5933L18.0612 13.7017ZM18.0697 13.6142C18.085 13.6066 18.1089 13.597 18.1331 13.5897C18.1447 13.5863 18.1532 13.5842 18.1581 13.5832C18.1604 13.5828 18.1606 13.5828 18.1589 13.583C18.1575 13.5832 18.1515 13.5839 18.1421 13.5839V12.9839C18.0736 12.9839 18.0038 13.0021 17.96 13.0153C17.9088 13.0307 17.8521 13.0521 17.8013 13.0775L18.0697 13.6142ZM18.1421 13.5839C18.1235 13.5839 18.1095 13.5817 18.1014 13.58C18.093 13.5784 18.0874 13.5765 18.0848 13.5756C18.0799 13.574 18.0802 13.5736 18.085 13.5763C18.0895 13.5787 18.0952 13.5824 18.1014 13.587C18.1076 13.5916 18.1125 13.596 18.1159 13.5993L18.5401 13.1751C18.4903 13.1252 18.4324 13.0828 18.3757 13.0514C18.33 13.0261 18.2429 12.9839 18.1421 12.9839V13.5839ZM18.1159 13.5993C18.1185 13.602 18.1216 13.6056 18.1247 13.6099C18.1277 13.6143 18.1301 13.6185 18.1317 13.6218C18.1333 13.6253 18.1335 13.6266 18.1332 13.6252C18.1329 13.624 18.1313 13.6175 18.1313 13.6062H18.7313C18.7313 13.4364 18.6425 13.2774 18.5401 13.1751L18.1159 13.5993ZM18.1313 13.6062C18.1313 13.5959 18.132 13.6009 18.127 13.6322C18.1229 13.6581 18.1164 13.6924 18.1078 13.733C18.0907 13.8141 18.0665 13.9127 18.0395 14.0071L18.6165 14.172C18.6473 14.0639 18.6748 13.9518 18.6948 13.8573C18.7121 13.7756 18.7313 13.6741 18.7313 13.6062H18.1313ZM18.0395 14.0071C17.9819 14.2089 17.895 14.4834 17.8404 14.6146L18.3942 14.8453C18.4635 14.679 18.5584 14.3751 18.6165 14.172L18.0395 14.0071ZM17.8377 14.6212C17.7849 14.757 17.6741 14.9949 17.5942 15.1508L18.1281 15.4246C18.2134 15.2582 18.334 15.0004 18.3969 14.8387L17.8377 14.6212ZM17.5914 15.1563C17.5221 15.2987 17.3493 15.5827 17.2157 15.7812L17.7133 16.1163C17.8524 15.9099 18.0432 15.5989 18.1308 15.4191L17.5914 15.1563ZM17.2172 15.779C17.0857 15.9706 16.7971 16.3117 16.5459 16.5629L16.9702 16.9872C17.2395 16.7178 17.5541 16.3484 17.7119 16.1185L17.2172 15.779ZM16.5443 16.5645C16.284 16.8288 15.9599 17.097 15.7417 17.2463L16.0805 17.7415C16.3332 17.5686 16.6867 17.275 16.9717 16.9856L16.5443 16.5645ZM15.7435 17.2451C15.5368 17.3842 15.2142 17.575 15.0355 17.6624L15.2992 18.2013C15.5089 18.0988 15.8556 17.8929 16.0786 17.7428L15.7435 17.2451ZM15.0355 17.6624C14.8482 17.7541 14.563 17.8765 14.4094 17.9289L14.6033 18.4967C14.7885 18.4335 15.0981 18.2998 15.2992 18.2013L15.0355 17.6624ZM14.4094 17.9289C14.2487 17.9838 13.9608 18.0677 13.7769 18.1108L13.9137 18.695C14.1181 18.6471 14.4251 18.5576 14.6033 18.4967L14.4094 17.9289ZM13.7711 18.1122C13.5987 18.1562 13.2278 18.2123 12.9474 18.2407L13.0079 18.8377C13.2977 18.8083 13.7036 18.7487 13.9195 18.6936L13.7711 18.1122ZM12.9522 18.2403C12.5765 18.2723 12.3532 18.2754 12.0395 18.241L11.974 18.8374C12.3379 18.8774 12.6021 18.8723 13.0031 18.8381L12.9522 18.2403ZM12.0361 18.2407C11.7905 18.2165 11.4503 18.1682 11.2819 18.1338L11.1616 18.7216C11.3568 18.7615 11.7189 18.8124 11.9774 18.8378L12.0361 18.2407ZM11.2882 18.1351C11.1151 18.0958 10.8059 18.0114 10.6125 17.9483L10.4263 18.5187C10.6378 18.5877 10.9649 18.6769 11.1553 18.7202L11.2882 18.1351ZM10.6177 17.9501C10.427 17.8839 10.1118 17.7523 9.92825 17.6624L9.66451 18.2013C9.86928 18.3016 10.2069 18.4426 10.4211 18.5169L10.6177 17.9501ZM9.92825 17.6624C9.74953 17.575 9.42696 17.3842 9.22022 17.2451L8.88519 17.7428C9.10812 17.8929 9.45487 18.0988 9.66451 18.2013L9.92825 17.6624ZM9.21911 17.2443C9.00365 17.1007 8.68783 16.8372 8.43272 16.586L8.01181 17.0136C8.28553 17.2831 8.63076 17.5732 8.88629 17.7436L9.21911 17.2443ZM8.4362 16.5895C8.20222 16.3515 7.91722 16.0217 7.80233 15.8586L7.31184 16.2042C7.45311 16.4047 7.76305 16.7606 8.00833 17.0102L8.4362 16.5895ZM7.80233 15.8586C7.68144 15.687 7.5092 15.4068 7.41797 15.2442L6.89468 15.5378C6.9935 15.7139 7.17657 16.0122 7.31184 16.2042L7.80233 15.8586ZM7.42067 15.2491C7.33397 15.0876 7.21047 14.8284 7.1488 14.678L6.5937 14.9058C6.66424 15.0777 6.79689 15.3556 6.89198 15.5328L7.42067 15.2491ZM7.1488 14.678C7.08796 14.5297 6.98859 14.2361 6.9337 14.0322L6.35433 14.1882C6.41512 14.414 6.52233 14.7318 6.5937 14.9058L7.1488 14.678ZM6.93226 14.0271C6.9031 13.926 6.877 13.8214 6.85898 13.7365C6.84993 13.6939 6.84348 13.6588 6.83964 13.6331C6.8346 13.5993 6.83727 13.6019 6.83593 13.622L6.23726 13.5821C6.23386 13.6331 6.24117 13.6879 6.2462 13.7216C6.25244 13.7634 6.26148 13.8113 6.27206 13.8611C6.29328 13.9611 6.32295 14.0796 6.35577 14.1934L6.93226 14.0271ZM6.8366 13.602C6.8366 13.6092 6.83605 13.6142 6.83568 13.6169C6.8353 13.6197 6.83495 13.6211 6.83494 13.6211C6.83492 13.6212 6.83511 13.6204 6.83562 13.619C6.83612 13.6176 6.83682 13.6158 6.83772 13.6138C6.83964 13.6096 6.8417 13.6061 6.8432 13.6039C6.84486 13.6015 6.84421 13.603 6.83989 13.607L6.43162 13.1674C6.36717 13.2272 6.32124 13.2999 6.29125 13.3661C6.26204 13.4305 6.2366 13.5138 6.2366 13.602H6.8366ZM6.85559 13.5913C6.85655 13.5903 6.85925 13.5876 6.86368 13.5842C6.86805 13.5809 6.87234 13.5781 6.87561 13.5763C6.87924 13.5743 6.87885 13.5749 6.87377 13.5766C6.87104 13.5775 6.86566 13.5792 6.85785 13.5807C6.85026 13.5821 6.83787 13.5839 6.82167 13.5839V12.9839C6.72178 12.9839 6.63535 13.0235 6.58491 13.0514C6.52621 13.0839 6.46631 13.1288 6.41592 13.1831L6.85559 13.5913Z" fill="white"/>
<path d="M11.5 14.7L9.5 12.7L10.2 12L11.5 13.3L14.8 10L15.5 10.7L11.5 14.7Z" fill="white"/>
</g>
<defs>
<clipPath id="clip0_109_1144">
<rect width="24" height="24" fill="white"/>
</clipPath>
</defs>
</svg>
