<svg width="25" height="24" viewBox="0 0 25 24" fill="none" xmlns="http://www.w3.org/2000/svg">
<mask id="mask0_2053_4430" style="mask-type:alpha" maskUnits="userSpaceOnUse" x="0" y="0" width="25" height="24">
<rect x="0.5" width="24" height="24" fill="#D9D9D9"/>
</mask>
<g mask="url(#mask0_2053_4430)">
<path d="M9.98705 12L17.337 4.65C17.587 4.4 17.7079 4.10417 17.6995 3.7625C17.6912 3.42083 17.562 3.125 17.312 2.875C17.062 2.625 16.7662 2.5 16.4245 2.5C16.0829 2.5 15.787 2.625 15.537 2.875L7.86205 10.575C7.66205 10.775 7.51205 11 7.41205 11.25C7.31205 11.5 7.26205 11.75 7.26205 12C7.26205 12.25 7.31205 12.5 7.41205 12.75C7.51205 13 7.66205 13.225 7.86205 13.425L15.562 21.125C15.812 21.375 16.1037 21.4958 16.437 21.4875C16.7704 21.4792 17.062 21.35 17.312 21.1C17.562 20.85 17.687 20.5542 17.687 20.2125C17.687 19.8708 17.562 19.575 17.312 19.325L9.98705 12Z" fill="#71717A"/>
</g>
</svg>
