<svg width="25" height="24" viewBox="0 0 25 24" fill="none" xmlns="http://www.w3.org/2000/svg">
<mask id="mask0_2053_4443" style="mask-type:alpha" maskUnits="userSpaceOnUse" x="0" y="0" width="25" height="24">
<rect x="0.5" width="24" height="24" fill="#D9D9D9"/>
</mask>
<g mask="url(#mask0_2053_4443)">
<path d="M14.9751 12L7.62511 4.65C7.37511 4.4 7.25428 4.10417 7.26261 3.7625C7.27094 3.42083 7.40011 3.125 7.65011 2.875C7.90011 2.625 8.19594 2.5 8.53761 2.5C8.87928 2.5 9.17511 2.625 9.42511 2.875L17.1001 10.575C17.3001 10.775 17.4501 11 17.5501 11.25C17.6501 11.5 17.7001 11.75 17.7001 12C17.7001 12.25 17.6501 12.5 17.5501 12.75C17.4501 13 17.3001 13.225 17.1001 13.425L9.40011 21.125C9.15011 21.375 8.85844 21.4958 8.52511 21.4875C8.19178 21.4792 7.90011 21.35 7.65011 21.1C7.40011 20.85 7.27511 20.5542 7.27511 20.2125C7.27511 19.8708 7.40011 19.575 7.65011 19.325L14.9751 12Z" fill="#5024FF"/>
</g>
</svg>
