<svg width="25" height="24" viewBox="0 0 25 24" fill="none" xmlns="http://www.w3.org/2000/svg">
<path d="M9.33374 9.25V6.5M9.33374 6.5C9.33374 7.4665 11.6842 8.25 14.5837 8.25C17.4832 8.25 19.8337 7.4665 19.8337 6.5M9.33374 6.5C9.33374 5.5335 11.6842 4.75 14.5837 4.75C17.4832 4.75 19.8337 5.5335 19.8337 6.5M19.8337 6.5V10.5C19.8337 10.9324 19.3633 11.3281 18.5837 11.6335" stroke="white" stroke-opacity="0.8" stroke-width="1.5" stroke-linecap="round" stroke-linejoin="round"/>
<path d="M15.8337 15.3835V19.3835C15.8337 20.35 13.4832 21.1335 10.5837 21.1335C7.68425 21.1335 5.33374 20.35 5.33374 19.3835V15.3835M15.8337 15.3835C15.8337 16.35 13.4832 17.1335 10.5837 17.1335C7.68425 17.1335 5.33374 16.35 5.33374 15.3835M15.8337 15.3835C15.8337 14.417 13.4832 13.6335 10.5837 13.6335C7.68425 13.6335 5.33374 14.417 5.33374 15.3835" stroke="white" stroke-opacity="0.8" stroke-width="1.5" stroke-linecap="round" stroke-linejoin="round"/>
</svg>
