<svg width="25" height="24" viewBox="0 0 25 24" fill="none" xmlns="http://www.w3.org/2000/svg">
<path d="M9.83374 6.75L5.33374 7.75V19.25H7.83374C8.36417 19.25 8.87288 19.0393 9.24795 18.6642C9.62303 18.2891 9.83374 17.7804 9.83374 17.25V13.25M9.83374 6.75L16.8337 4.75M9.83374 6.75V8.75M9.83374 13.25C9.83374 13.25 14.8337 11.25 19.8337 11.25V8.75H9.83374M9.83374 13.25V8.75M19.8337 18C19.8337 18.3315 19.702 18.6495 19.4676 18.8839C19.2332 19.1183 18.9153 19.25 18.5837 19.25C18.2522 19.25 17.9343 19.1183 17.6999 18.8839C17.4654 18.6495 17.3337 18.3315 17.3337 18C17.3337 17.31 18.5837 15.75 18.5837 15.75C18.5837 15.75 19.8337 17.31 19.8337 18Z" stroke="white" stroke-opacity="0.8" stroke-width="1.5" stroke-linecap="round" stroke-linejoin="round"/>
</svg>
