<svg width="25" height="24" viewBox="0 0 25 24" fill="none" xmlns="http://www.w3.org/2000/svg">
<path d="M5.33374 6.75C5.33374 5.64543 6.22917 4.75 7.33374 4.75H17.8337C18.9383 4.75 19.8337 5.64543 19.8337 6.75V15.25C19.8337 16.3546 18.9383 17.25 17.8337 17.25H7.33374C6.22917 17.25 5.33374 16.3546 5.33374 15.25V6.75Z" stroke="white" stroke-opacity="0.8" stroke-width="1.5" stroke-linecap="round" stroke-linejoin="round"/>
<path d="M8.58374 17.5V19.25" stroke="white" stroke-opacity="0.8" stroke-width="1.5" stroke-linecap="round" stroke-linejoin="round"/>
<path d="M16.5837 17.5V19.25" stroke="white" stroke-opacity="0.8" stroke-width="1.5" stroke-linecap="round" stroke-linejoin="round"/>
<path d="M15.8337 11C15.8337 12.7949 14.3786 14.25 12.5837 14.25C10.7888 14.25 9.33374 12.7949 9.33374 11C9.33374 9.20507 10.7888 7.75 12.5837 7.75C14.3786 7.75 15.8337 9.20507 15.8337 11Z" stroke="white" stroke-opacity="0.8" stroke-width="1.5" stroke-linecap="round" stroke-linejoin="round"/>
</svg>
