<svg width="78" height="78" viewBox="0 0 78 78" fill="none" xmlns="http://www.w3.org/2000/svg">
<mask id="mask0_198_572" style="mask-type:alpha" maskUnits="userSpaceOnUse" x="0" y="0" width="78" height="78">
<rect width="78" height="78" fill="#D9D9D9"/>
</mask>
<g mask="url(#mask0_198_572)">
<path d="M12.9998 61.751V55.251H19.4998V32.501C19.4998 28.0051 20.8539 24.0104 23.5623 20.5166C26.2706 17.0229 29.7914 14.7343 34.1248 13.651V11.376C34.1248 10.0218 34.5987 8.87077 35.5466 7.92285C36.4945 6.97493 37.6456 6.50098 38.9998 6.50098C40.3539 6.50098 41.505 6.97493 42.4529 7.92285C43.4008 8.87077 43.8748 10.0218 43.8748 11.376V13.651C48.2081 14.7343 51.7289 17.0229 54.4373 20.5166C57.1456 24.0104 58.4998 28.0051 58.4998 32.501V55.251H64.9998V61.751H12.9998ZM38.9998 71.501C37.2123 71.501 35.682 70.8645 34.4091 69.5916C33.1362 68.3187 32.4998 66.7885 32.4998 65.001H45.4998C45.4998 66.7885 44.8633 68.3187 43.5904 69.5916C42.3175 70.8645 40.7873 71.501 38.9998 71.501ZM25.9998 55.251H51.9998V32.501C51.9998 28.926 50.7268 25.8656 48.181 23.3197C45.6352 20.7739 42.5748 19.501 38.9998 19.501C35.4248 19.501 32.3643 20.7739 29.8185 23.3197C27.2727 25.8656 25.9998 28.926 25.9998 32.501V55.251Z" fill="white" fill-opacity="0.8"/>
</g>
</svg>
