<svg width="24" height="24" viewBox="0 0 24 24" fill="none" xmlns="http://www.w3.org/2000/svg">
<mask id="mask0_142_824" style="mask-type:alpha" maskUnits="userSpaceOnUse" x="0" y="0" width="24" height="24">
<rect width="24" height="24" fill="#D9D9D9"/>
</mask>
<g mask="url(#mask0_142_824)">
<path d="M11.249 16.75H12.749V15.75H13.8643C14.1149 15.75 14.3251 15.6652 14.4948 15.4957C14.6643 15.3261 14.749 15.1159 14.749 14.8652V12.1348C14.749 11.8841 14.6643 11.6739 14.4948 11.5043C14.3251 11.3348 14.1149 11.25 13.8643 11.25H10.749V9.75H14.749V8.25H12.749V7.25H11.249V8.25H10.1338C9.88311 8.25 9.67294 8.33475 9.50327 8.50425C9.33377 8.67392 9.24902 8.88408 9.24902 9.13475V11.8652C9.24902 12.1159 9.33377 12.3261 9.50327 12.4957C9.67294 12.6652 9.88311 12.75 10.1338 12.75H13.249V14.25H9.24902V15.75H11.249V16.75ZM2.49902 19.5V4.5H21.499V19.5H2.49902ZM3.99902 18H19.999V6H3.99902V18Z" fill="white"/>
</g>
</svg>
